<svg xmlns="http://www.w3.org/2000/svg" width="385.898" height="47.409" viewBox="0 0 385.898 47.409">
  <g id="Group_347" data-name="Group 347" transform="translate(-41.909 -58.6)">
    <g id="Group_345" data-name="Group 345" transform="translate(41.909 58.6)">
      <path id="Path_219" data-name="Path 219" d="M48.534,81.433H41.909v-.45c1.89,0,2.623-.593,3.834-3.637L53.3,58.6h.253l7.7,20.578c.423,1.1,1.1,1.805,2.9,1.805v.45H57.527v-.45c1.774,0,2.536-.311,2-1.749l-2.085-5.75H48.308l-1.353,3.467C45.6,80.418,46,80.983,48.534,80.983Zm.309-9.3h8.09l-3.891-10.74Z" transform="translate(-41.909 -58.6)" fill="#464749"/>
      <path id="Path_220" data-name="Path 220" d="M64.978,58.935c4.876,0,9.275.9,9.275,5.555,0,3.015-2.4,5.582-6.569,5.806,3.947.141,5.385,1.606,6.2,5.131.9,3.805,1.973,6.061,5.328,5.609l.027.056a4.717,4.717,0,0,1-2.029.423c-3.129,0-4.115-1.944-5.187-6.173-1.127-4.4-2.677-4.511-7.02-4.511H62.949V78.78c0,1.635.818,1.89,3.382,1.89v.45H58.467v-.45c2.283,0,2.791-.423,2.791-1.693V60.908c0-1.3-.508-1.55-2.791-1.55v-.423ZM62.949,70.21H64.19c3.918,0,8.146-.986,8.146-5.524,0-3.693-2.538-4.99-7.273-4.99H62.949Z" transform="translate(-26.465 -58.288)" fill="#464749"/>
      <path id="Path_221" data-name="Path 221" d="M76.765,60.937c0-1.212-.508-1.55-2.791-1.55v-.452h7.273v.452c-2.283,0-2.791.338-2.791,1.55v18.04c0,1.214.508,1.693,2.791,1.693v.45H73.974v-.45c2.283,0,2.791-.479,2.791-1.693Z" transform="translate(-12.002 -58.288)" fill="#464749"/>
      <path id="Path_222" data-name="Path 222" d="M89.41,81.433H82.785v-.45c1.89,0,2.623-.593,3.834-3.637L94.174,58.6h.253l7.7,20.578c.423,1.1,1.1,1.805,2.9,1.805v.45H98.4v-.45c1.776,0,2.536-.311,2-1.749l-2.085-5.75H89.184l-1.353,3.467c-1.353,3.467-.959,4.032,1.579,4.032Zm.309-9.3h8.092l-3.892-10.74Z" transform="translate(-3.784 -58.6)" fill="#464749"/>
      <path id="Path_223" data-name="Path 223" d="M118.879,62.346c0-1.973-.338-2.959-3.1-2.959v-.452h7.271v.452c-2.451,0-3.071.957-3.071,2.959V81.824h-.085l-16.378-20.3V77.709c0,1.973.338,2.961,3.1,2.961v.45H99.343v-.45c2.453,0,3.073-.959,3.073-2.961V61.9c0-1.805-1.326-2.482-3.044-2.482v-.479h4.2l15.307,19.056Z" transform="translate(11.66 -58.288)" fill="#464749"/>
      <path id="Path_224" data-name="Path 224" d="M136.354,62.346c0-1.973-.338-2.959-3.1-2.959v-.452h7.273v.452c-2.453,0-3.073.957-3.073,2.959V81.824h-.085l-16.378-20.3V77.709c0,1.973.338,2.961,3.1,2.961v.45H116.82v-.45c2.453,0,3.073-.959,3.073-2.961V61.9c0-1.805-1.326-2.482-3.046-2.482v-.479h4.2l15.305,19.056Z" transform="translate(27.961 -58.288)" fill="#464749"/>
      <path id="Path_225" data-name="Path 225" d="M139.516,81.121v-.45c2.706,0,3.212-.255,3.212-1.805V72.043l-6.256-10.993c-.508-1.044-1.129-1.662-2.9-1.662v-.452h6.879v.452c-1.888,0-2.735.394-2.2,1.38l5.667,10.319,5.694-9.613c.874-1.494.255-2.085-2.2-2.085v-.452h6.708v.452c-1.944,0-2.368.562-3.355,2.141l-6.341,10.261v7.047c0,1.635.506,1.834,3.212,1.834v.45Z" transform="translate(43.581 -58.288)" fill="#464749"/>
      <path id="Path_226" data-name="Path 226" d="M161.193,59.7c-4.059,0-4.764,1.55-4.849,6.173h-.282V58.935h19.169V65.87h-.282c-.083-4.623-.789-6.173-4.847-6.173h-3.608v19c0,1.633.506,1.973,3.353,1.973v.45h-8.4v-.45c2.847,0,3.355-.367,3.355-1.946V59.7Z" transform="translate(64.562 -58.288)" fill="#464749"/>
      <path id="Path_227" data-name="Path 227" d="M194.418,70.316c0,7.018-5.046,11.444-11.811,11.444-6.793,0-11.84-4.623-11.84-11.614,0-7.047,5.046-11.473,11.84-11.473C189.371,58.673,194.418,63.3,194.418,70.316Zm-1.888-.085c0-7.752-5.412-10.74-9.923-10.74-4.482,0-9.951,2.988-9.951,10.74,0,7.667,5.47,10.711,9.951,10.711C187.118,80.942,192.529,77.9,192.529,70.231Z" transform="translate(78.278 -58.532)" fill="#464749"/>
      <path id="Path_228" data-name="Path 228" d="M195.149,58.935c4.876,0,9.275.9,9.275,5.555,0,3.015-2.4,5.582-6.569,5.806,3.947.141,5.384,1.606,6.2,5.131.9,3.805,1.973,6.061,5.328,5.609l.027.056a4.716,4.716,0,0,1-2.029.423c-3.129,0-4.115-1.944-5.187-6.173-1.127-4.4-2.677-4.511-7.02-4.511H193.12V78.78c0,1.635.818,1.89,3.382,1.89v.45h-7.864v-.45c2.283,0,2.791-.423,2.791-1.693V60.908c0-1.3-.508-1.55-2.791-1.55v-.423ZM193.12,70.21h1.241c3.918,0,8.146-.986,8.146-5.524,0-3.693-2.538-4.99-7.273-4.99H193.12Z" transform="translate(94.946 -58.288)" fill="#464749"/>
      <path id="Path_229" data-name="Path 229" d="M210.656,58.935c4.876,0,9.275.9,9.275,5.555,0,3.015-2.4,5.582-6.569,5.806,3.947.141,5.385,1.606,6.2,5.131.9,3.805,1.973,6.061,5.328,5.609l.027.056a4.717,4.717,0,0,1-2.029.423c-3.129,0-4.115-1.944-5.187-6.173-1.127-4.4-2.677-4.511-7.02-4.511h-2.056V78.78c0,1.635.818,1.89,3.382,1.89v.45h-7.864v-.45c2.283,0,2.791-.423,2.791-1.693V60.908c0-1.3-.508-1.55-2.791-1.55v-.423ZM208.627,70.21h1.241c3.918,0,8.146-.986,8.146-5.524,0-3.693-2.538-4.99-7.273-4.99h-2.114Z" transform="translate(109.41 -58.288)" fill="#464749"/>
      <path id="Path_230" data-name="Path 230" d="M236.283,81.121H219.652v-.45c2.283,0,2.791-.34,2.791-1.552V60.937c0-1.212-.508-1.55-2.791-1.55v-.452h15.616v4.793h-.282c-.365-3.552-1.353-4.032-5.383-4.032h-5.47v9.1h4.791c1.946,0,2.567-.2,3.017-2.876h.282v6.569h-.282c-.45-2.735-1.071-2.932-3.017-2.932h-4.791v8.908c0,1.691.367,1.888,2.143,1.888h4.791c3.664,0,4.482-.733,4.932-4.482h.282Z" transform="translate(123.873 -58.288)" fill="#464749"/>
      <path id="Path_231" data-name="Path 231" d="M234.318,75.333c.818,4.706,3.579,5.609,6.85,5.609,3.693,0,5.835-2.17,5.835-5.017,0-2.988-1.691-4.258-5.384-5.47l-1.832-.591c-3.635-1.212-5.327-3.129-5.327-6.088,0-3.27,2.959-5.1,6.679-5.1a11.849,11.849,0,0,1,6.343,1.606v4.37h-.253c-.535-3.637-2.762-5.187-6.117-5.187-2.482,0-5.017,1.071-5.017,4.256,0,2.652,2.2,3.947,4.426,4.681l1.859.618c2.706.9,6.229,2.114,6.229,6.316,0,3.833-2.789,6.426-7.5,6.426a12.091,12.091,0,0,1-7.076-1.973V75.333Z" transform="translate(137.289 -58.532)" fill="#464749"/>
    </g>
    <g id="Group_346" data-name="Group 346" transform="translate(133.309 95.836)">
      <path id="Path_232" data-name="Path 232" d="M94.95,86.765l-.454-1.3H91.4l-.454,1.3H89.2l2.783-7.679H93.91l2.783,7.679Zm-2-6.044-1.127,3.3h2.252Z" transform="translate(-89.2 -76.728)" fill="#aad6b2"/>
      <path id="Path_233" data-name="Path 233" d="M95.368,85.737l.845-1.278a3.091,3.091,0,0,0,2.3,1.048c.856,0,1.256-.4,1.256-.852,0-1.336-4.159-.4-4.159-3.291a2.459,2.459,0,0,1,2.741-2.337,3.875,3.875,0,0,1,2.816,1.071l-.856,1.22a3,3,0,0,0-2.1-.841c-.649,0-1.019.3-1.019.76,0,1.21,4.148.392,4.148,3.259,0,1.4-.953,2.462-2.891,2.462A4.041,4.041,0,0,1,95.368,85.737Z" transform="translate(-83.447 -76.783)" fill="#aad6b2"/>
      <path id="Path_234" data-name="Path 234" d="M101.228,86.765V79.086h5.112v1.44h-3.574v1.612h3.5v1.438h-3.5v1.749h3.574v1.44Z" transform="translate(-77.981 -76.728)" fill="#aad6b2"/>
      <path id="Path_235" data-name="Path 235" d="M106.477,85.737l.847-1.278a3.086,3.086,0,0,0,2.294,1.048c.856,0,1.256-.4,1.256-.852,0-1.336-4.157-.4-4.157-3.291a2.458,2.458,0,0,1,2.739-2.337,3.875,3.875,0,0,1,2.816,1.071l-.854,1.22a3,3,0,0,0-2.1-.841c-.651,0-1.019.3-1.019.76,0,1.21,4.148.392,4.148,3.259,0,1.4-.953,2.462-2.891,2.462A4.043,4.043,0,0,1,106.477,85.737Z" transform="translate(-73.086 -76.783)" fill="#aad6b2"/>
      <path id="Path_236" data-name="Path 236" d="M112.158,82.993a3.779,3.779,0,1,1,3.78,3.97A3.747,3.747,0,0,1,112.158,82.993Zm5.968,0a2.215,2.215,0,1,0-2.188,2.52A2.269,2.269,0,0,0,118.126,82.993Z" transform="translate(-67.787 -76.789)" fill="#aad6b2"/>
      <path id="Path_237" data-name="Path 237" d="M122.948,86.765l-1.419-2.729H120.4v2.729h-1.538V79.086h3.38a2.326,2.326,0,0,1,2.435,2.476,2.2,2.2,0,0,1-1.591,2.279l1.635,2.924Zm.151-5.214a1,1,0,0,0-1.073-1.024H120.4V82.6h1.623A1.007,1.007,0,0,0,123.1,81.55Z" transform="translate(-61.532 -76.728)" fill="#aad6b2"/>
      <path id="Path_238" data-name="Path 238" d="M125.625,79.522h-.962l1.45-1.656h1.268Zm-.877,8.38V80.224h1.538V87.9Z" transform="translate(-56.123 -77.866)" fill="#aad6b2"/>
      <path id="Path_239" data-name="Path 239" d="M133.843,86.765l-.456-1.3h-3.1l-.454,1.3h-1.743l2.783-7.679H132.8l2.781,7.679Zm-2-6.044-1.127,3.3h2.252Z" transform="translate(-52.926 -76.728)" fill="#aad6b2"/>
      <path id="Path_240" data-name="Path 240" d="M143.219,86.765l-3.444-5.008v5.008h-1.538V79.086h1.581l3.347,4.824V79.086H144.7v7.679Z" transform="translate(-43.463 -76.728)" fill="#aad6b2"/>
      <path id="Path_241" data-name="Path 241" d="M144.562,83.69v-4.6h1.56v4.559a1.7,1.7,0,1,0,3.39,0V79.086h1.569v4.6a3.26,3.26,0,0,1-6.519,0Z" transform="translate(-37.563 -76.728)" fill="#aad6b2"/>
      <path id="Path_242" data-name="Path 242" d="M152.8,86.765V80.526h-2.112v-1.44h5.761v1.44h-2.1v6.239Z" transform="translate(-31.853 -76.728)" fill="#aad6b2"/>
      <path id="Path_243" data-name="Path 243" d="M160.5,86.765l-1.419-2.729h-1.127v2.729h-1.538V79.086h3.38a2.326,2.326,0,0,1,2.435,2.476,2.2,2.2,0,0,1-1.591,2.279l1.635,2.924Zm.151-5.214a1,1,0,0,0-1.073-1.024h-1.623V82.6h1.623A1.007,1.007,0,0,0,160.65,81.55Z" transform="translate(-26.507 -76.728)" fill="#aad6b2"/>
      <path id="Path_244" data-name="Path 244" d="M162.26,86.765V79.086H163.8v7.679Z" transform="translate(-21.056 -76.728)" fill="#aad6b2"/>
      <path id="Path_245" data-name="Path 245" d="M165.856,82.993a3.78,3.78,0,0,1,3.856-3.972,3.263,3.263,0,0,1,3.011,1.877l-1.322.69a1.946,1.946,0,0,0-1.689-1.117,2.535,2.535,0,0,0,0,5.042A1.946,1.946,0,0,0,171.4,84.4l1.322.678a3.291,3.291,0,0,1-3.011,1.888A3.786,3.786,0,0,1,165.856,82.993Z" transform="translate(-17.702 -76.789)" fill="#aad6b2"/>
      <path id="Path_246" data-name="Path 246" d="M172.125,86.765V79.086h1.538v7.679Z" transform="translate(-11.855 -76.728)" fill="#aad6b2"/>
      <path id="Path_247" data-name="Path 247" d="M175.722,82.993a3.778,3.778,0,1,1,3.778,3.97A3.746,3.746,0,0,1,175.722,82.993Zm5.966,0a2.214,2.214,0,1,0-2.188,2.52A2.268,2.268,0,0,0,181.688,82.993Z" transform="translate(-8.5 -76.789)" fill="#aad6b2"/>
      <path id="Path_248" data-name="Path 248" d="M187.41,86.765l-3.444-5.008v5.008h-1.538V79.086h1.581l3.347,4.824V79.086h1.536v7.679Z" transform="translate(-2.246 -76.728)" fill="#aad6b2"/>
      <path id="Path_249" data-name="Path 249" d="M194.111,86.765l-.454-1.3h-3.1l-.454,1.3h-1.743l2.783-7.679h1.929l2.783,7.679Zm-2-6.044-1.127,3.3h2.252Z" transform="translate(3.288 -76.728)" fill="#aad6b2"/>
      <path id="Path_250" data-name="Path 250" d="M194.792,86.765V79.086h1.55v6.239H199.4v1.44Z" transform="translate(9.286 -76.728)" fill="#aad6b2"/>
    </g>
  </g>
</svg>
