<svg xmlns="http://www.w3.org/2000/svg" width="75.338" height="93.356" viewBox="0 0 75.338 93.356">
  <g id="Group_396" data-name="Group 396" transform="translate(69.519 -29.828)">
    <g id="Path_260" data-name="Path 260" fill="#fff">
      <path d="M -31.85199928283691 122.6840057373047 C -52.34595108032227 122.6840057373047 -69.01899719238281 106.0248641967773 -69.01899719238281 85.54798889160156 C -69.01875305175781 81.36421966552734 -68.32366943359375 77.25554656982422 -66.95307159423828 73.33609771728516 C -65.62851715087891 69.54834747314453 -63.70159912109375 66.01226043701172 -61.22582244873047 62.82608795166016 C -58.775634765625 59.6728515625 -55.85354995727539 56.94561767578125 -52.54071426391602 54.72013473510742 C -49.55152893066406 52.71205520629883 -46.31295776367188 51.15974807739258 -42.89667892456055 50.09597015380859 C -44.03010177612305 49.53307342529297 -45.11500549316406 48.86758804321289 -46.13444519042969 48.10916900634766 C -50.98412704467773 44.50876998901367 -54.05899810791016 38.99112319946289 -54.57020950317383 32.97130966186523 C -54.64826965332031 32.04143905639648 -54.01908111572266 31.19616889953613 -53.10670471191406 31.00466346740723 C -51.67242050170898 30.70104026794434 -50.19892883300781 30.54700469970703 -48.72799682617188 30.54700469970703 C -44.17431640625 30.54700469970703 -39.82839965820312 31.98566246032715 -36.16006851196289 34.70746231079102 C -34.61188125610352 35.85844421386719 -33.24146270751953 37.1993293762207 -32.07211685180664 38.70561218261719 C -32.04726409912109 38.20925521850586 -32.02193450927734 37.7283935546875 -31.99729347229004 37.26448822021484 L -31.9917163848877 37.15793228149414 C -31.92855072021484 35.95158004760742 -31.87399864196777 34.90973281860352 -31.87399864196777 34.33400344848633 C -31.87399864196777 32.12508773803711 -30.07466888427734 30.32800483703613 -27.86299896240234 30.32800483703613 C -25.65132713317871 30.32800483703613 -23.85199928283691 32.12508773803711 -23.85199928283691 34.33400344848633 C -23.85199928283691 34.92313385009766 -23.79479789733887 35.99971008300781 -23.72856330871582 37.24628829956055 L -23.72770500183105 37.26247406005859 C -23.5527286529541 40.56340789794922 -23.29164695739746 45.48855590820312 -23.62674522399902 49.3377571105957 C -19.65507698059082 50.23711395263672 -15.87875175476074 51.77907180786133 -12.39621067047119 53.9242057800293 C -8.856551170349121 56.10452270507812 -5.723328113555908 58.84260559082031 -3.083586692810059 62.06237030029297 C -0.4211043417453766 65.30988311767578 1.654648542404175 68.94525146484375 3.086013317108154 72.86747741699219 C 4.567718982696533 76.92765045166016 5.3190016746521 81.19399261474609 5.3190016746521 85.54798889160156 C 5.3190016746521 106.0248641967773 -11.35583400726318 122.6840057373047 -31.85199928283691 122.6840057373047 Z M -34.73011779785156 52.24522018432617 C -43.0328483581543 52.95515441894531 -50.73751831054688 56.73273468017578 -56.42858505249023 62.88466262817383 C -62.16036224365234 69.08058929443359 -65.31700134277344 77.12924957275391 -65.31700134277344 85.54798889160156 C -65.31700134277344 103.9835662841797 -50.30465698242188 118.9820022583008 -31.85199928283691 118.9820022583008 C -13.39712810516357 118.9820022583008 1.617001533508301 103.9835662841797 1.617001533508301 85.54798889160156 C 1.617001533508301 81.53640747070312 0.9096015095710754 77.61134338378906 -0.4855514168739319 73.8818359375 C -1.833304405212402 70.27907562255859 -3.784151315689087 66.95451354980469 -6.283927917480469 64.00048828125 C -11.31396198272705 58.05643844604492 -18.2734546661377 54.02730560302734 -25.88274192810059 52.65338897705078 L -25.88284492492676 52.65338134765625 C -25.90804481506348 52.6517219543457 -25.94611549377441 52.64921569824219 -25.99089241027832 52.64121627807617 C -27.40115165710449 52.38973236083984 -28.82437515258789 52.22830963134766 -30.22091674804688 52.16142654418945 L -30.23160934448242 52.16092300415039 L -30.24226951599121 52.15994644165039 L -30.24263763427734 52.159912109375 C -30.50242805480957 52.14741897583008 -30.76848220825195 52.13784790039062 -31.05451393127441 52.13073348999023 C -31.90473747253418 52.23112106323242 -32.7420654296875 52.28200531005859 -33.54399871826172 52.28200531005859 C -33.90635299682617 52.28200531005859 -34.29472732543945 52.26996612548828 -34.73011779785156 52.24522018432617 Z M -28.44605827331543 48.57522201538086 C -28.06259727478027 48.61051177978516 -27.67535209655762 48.65218734741211 -27.2874927520752 48.69989776611328 C -27.01469230651855 45.16288375854492 -27.25960159301758 40.55619049072266 -27.42429351806641 37.45854568481445 L -27.42975234985352 37.3546028137207 C -27.49860954284668 36.04285049438477 -27.55299758911133 35.00674438476562 -27.55299758911133 34.33400344848633 C -27.55299758911133 34.17438125610352 -27.70075225830078 34.02900314331055 -27.86299896240234 34.02900314331055 C -28.02524566650391 34.02900314331055 -28.17299842834473 34.17438125610352 -28.17299842834473 34.33400344848633 C -28.17299842834473 35.00765228271484 -28.22751617431641 36.04618072509766 -28.29652786254883 37.36101531982422 L -28.30168151855469 37.45920562744141 C -28.46217155456543 40.50849533081055 -28.70150566101074 45.05655288696289 -28.44605827331543 48.57522201538086 Z M -50.65364074707031 34.35533905029297 C -50.27382278442383 36.40898513793945 -49.53422546386719 38.35748291015625 -48.45171737670898 40.15422821044922 C -47.27666854858398 42.10456848144531 -45.75430297851562 43.78155899047852 -43.92690277099609 45.13858032226562 C -41.24878311157227 47.12960815429688 -38.08699417114258 48.30346298217773 -34.78031921386719 48.53465270996094 C -33.90202713012695 48.46632385253906 -33.02486419677734 48.4279899597168 -32.16768264770508 48.42040634155273 C -32.21227645874023 47.70079803466797 -32.24148178100586 46.92484283447266 -32.25474166870117 46.10540008544922 C -33.38099670410156 42.72780227661133 -35.49335861206055 39.81543350219727 -38.36726760864258 37.67929840087891 C -41.39075088500977 35.43525314331055 -44.97388076782227 34.24900436401367 -48.72900009155273 34.24900436401367 C -49.36725997924805 34.24900436401367 -50.01254653930664 34.28470993041992 -50.65364074707031 34.35533905029297 Z" stroke="none"/>
      <path d="M -27.86299896240234 30.82799530029297 C -29.79899978637695 30.82799530029297 -31.37399673461914 32.40099334716797 -31.37399673461914 34.33399963378906 C -31.37399673461914 34.93999481201172 -31.43199920654297 36.02999877929688 -31.49799728393555 37.29100036621094 C -31.54399871826172 38.15699768066406 -31.59499740600586 39.12899780273438 -31.63999938964844 40.15699768066406 C -32.93299865722656 38.23099517822266 -34.55199813842773 36.52599334716797 -36.45800018310547 35.10899353027344 C -40.03899765014648 32.45199584960938 -44.28199768066406 31.0469970703125 -48.72799682617188 31.0469970703125 C -50.1619987487793 31.0469970703125 -51.60099792480469 31.19699859619141 -53.00399780273438 31.49399566650391 C -53.67099761962891 31.63399505615234 -54.12899780273438 32.25 -54.07199859619141 32.92899322509766 C -53.572998046875 38.80500030517578 -50.57199859619141 44.19199371337891 -45.83599853515625 47.70800018310547 C -44.46899795532227 48.72499847412109 -43.00299835205078 49.55699920654297 -41.46699905395508 50.19999694824219 C -57.0359992980957 54.43099975585938 -68.51799774169922 68.67401123046875 -68.51899719238281 85.54799652099609 C -68.51899719238281 105.7489929199219 -52.06999969482422 122.1839981079102 -31.85199928283691 122.1839981079102 C -11.63099670410156 122.1839981079102 4.819000244140625 105.7489929199219 4.819000244140625 85.54799652099609 C 4.819000244140625 67.98299407958984 -7.623996734619141 53.26899719238281 -24.16600036621094 49.73099517822266 C -23.77299880981445 45.86599731445312 -24.04199981689453 40.77899932861328 -24.22699737548828 37.28899383544922 C -24.29399871826172 36.02799987792969 -24.35199737548828 34.93899536132812 -24.35199737548828 34.33399963378906 C -24.35199737548828 32.40099334716797 -25.92699813842773 30.82799530029297 -27.86299896240234 30.82799530029297 M -26.83399963378906 49.26300048828125 C -27.52099990844727 49.16899871826172 -28.21299743652344 49.09299468994141 -28.9109992980957 49.03699493408203 C -29.22200012207031 45.43299865722656 -28.97200012207031 40.68199920654297 -28.80099868774414 37.43299865722656 C -28.72999954223633 36.07999420166016 -28.67300033569336 35.01099395751953 -28.67300033569336 34.33399963378906 C -28.67300033569336 33.89799499511719 -28.30199813842773 33.52899932861328 -27.86299896240234 33.52899932861328 C -27.42399978637695 33.52899932861328 -27.05299758911133 33.89799499511719 -27.05299758911133 34.33399963378906 C -27.05299758911133 35.01099395751953 -26.99599838256836 36.07899475097656 -26.92499923706055 37.43199920654297 C -26.74699783325195 40.77999877929688 -26.48999786376953 45.64199829101562 -26.83399963378906 49.26300048828125 M -31.63199996948242 48.9219970703125 C -31.70499801635742 48.9219970703125 -31.77799797058105 48.91899871826172 -31.85199928283691 48.91899871826172 C -32.83699798583984 48.91899871826172 -33.81299591064453 48.95999908447266 -34.77799987792969 49.03599548339844 C -38.197998046875 48.80399322509766 -41.44199752807617 47.60899353027344 -44.22499847412109 45.53999328613281 C -48.00899887084961 42.72999572753906 -50.51799774169922 38.54799652099609 -51.2339973449707 33.92399597167969 C -50.40399932861328 33.80799865722656 -49.56499862670898 33.74899291992188 -48.72899627685547 33.74899291992188 C -44.86599731445312 33.74899291992188 -41.18000030517578 34.968994140625 -38.06900024414062 37.27799987792969 C -35.08899688720703 39.49299621582031 -32.90899658203125 42.51300048828125 -31.7559986114502 46.02099609375 C -31.73999786376953 47.09299468994141 -31.697998046875 48.05299377441406 -31.63199996948242 48.9219970703125 M -31.85199928283691 119.4819946289062 C -50.57999801635742 119.4819946289062 -65.81700134277344 104.2589950561523 -65.81700134277344 85.54799652099609 C -65.81700134277344 67.81099700927734 -52.11999893188477 53.21200561523438 -34.73699951171875 51.74399566650391 C -34.34099578857422 51.76699829101562 -33.94400024414062 51.78199768066406 -33.54399871826172 51.78199768066406 C -32.72200012207031 51.78199768066406 -31.89699935913086 51.72799682617188 -31.07799911499023 51.63001251220703 C -30.7869987487793 51.63699340820312 -30.49699783325195 51.64699554443359 -30.20800018310547 51.66099548339844 L -30.19699859619141 51.66199493408203 C -28.77699661254883 51.72999572753906 -27.33300018310547 51.89399719238281 -25.90299987792969 52.14899444580078 C -25.875 52.15399932861328 -25.84599685668945 52.15399932861328 -25.81799697875977 52.15699768066406 C -9.955997467041016 55.00899505615234 2.116989135742188 68.89601135253906 2.116989135742188 85.54799652099609 C 2.116989135742188 104.2589950561523 -13.12099838256836 119.4819946289062 -31.85199928283691 119.4819946289062 M -27.86299896240234 29.82799530029297 C -25.3756217956543 29.82799530029297 -23.35199737548828 31.84938049316406 -23.35199737548828 34.33399963378906 C -23.35199737548828 34.90985870361328 -23.29512405395508 35.98028564453125 -23.22927474975586 37.21974945068359 L -23.22841262817383 37.23593139648438 C -23.05915069580078 40.42893218994141 -22.80970001220703 45.1348876953125 -23.09372711181641 48.94834899902344 C -19.222900390625 49.87193298339844 -15.53981018066406 51.40059661865234 -12.13397216796875 53.49848175048828 C -8.546985626220703 55.70794677734375 -5.371910095214844 58.48259735107422 -2.696922302246094 61.745361328125 C 0.0013275146484375 65.0364990234375 2.105010986328125 68.72084808349609 3.555717468261719 72.69607543945312 C 5.057525634765625 76.81133270263672 5.819000244140625 81.13534545898438 5.819000244140625 85.54799652099609 C 5.819000244140625 106.3005599975586 -11.08013534545898 123.1839981079102 -31.85199928283691 123.1839981079102 C -52.62165069580078 123.1839981079102 -69.51899719238281 106.3005599975586 -69.51899719238281 85.54799652099609 C -69.51874542236328 81.307861328125 -68.81423950195312 77.14366912841797 -67.42503356933594 73.17104339599609 C -66.08258819580078 69.33208465576172 -64.12969970703125 65.74832153320312 -61.62063598632812 62.51929473876953 C -59.13774871826172 59.32395935058594 -56.1766242980957 56.56029510498047 -52.81953430175781 54.30508422851562 C -50.11902236938477 52.49092864990234 -47.21767044067383 51.04383087158203 -44.16679382324219 49.98725891113281 C -44.95062255859375 49.54308319091797 -45.70795440673828 49.04964447021484 -46.43289947509766 48.51030731201172 C -51.39724731445312 44.82478332519531 -54.54507446289062 39.17623138427734 -55.06841278076172 33.01361083984375 C -55.16758728027344 31.83219909667969 -54.36836242675781 30.75858306884766 -53.20942306518555 30.51531982421875 C -51.74199676513672 30.20468139648438 -50.23366165161133 30.0469970703125 -48.72799682617188 30.0469970703125 C -44.06621170043945 30.0469970703125 -39.61727142333984 31.51970672607422 -35.86213684082031 34.305908203125 C -34.62914276123047 35.22256469726562 -33.50644302368164 36.2567138671875 -32.50501251220703 37.39680480957031 C -32.502197265625 37.3436279296875 -32.4993896484375 37.29069519042969 -32.49658584594727 37.23796081542969 L -32.49103546142578 37.13178253173828 C -32.42823791503906 35.93243408203125 -32.37400054931641 34.89663696289062 -32.37400054931641 34.33399963378906 C -32.37400054931641 31.84938049316406 -30.35037231445312 29.82799530029297 -27.86299896240234 29.82799530029297 Z M -32.75337219238281 46.19122314453125 C -33.85301208496094 42.94207000732422 -35.89488220214844 40.13997650146484 -38.66555023193359 38.08057403564453 C -41.60192108154297 35.90118408203125 -45.08200073242188 34.74899291992188 -48.72899627685547 34.74899291992188 C -49.16841506958008 34.74899291992188 -49.61129760742188 34.76642608642578 -50.05375671386719 34.80100250244141 C -49.66093444824219 36.59861755371094 -48.98003005981445 38.30845642089844 -48.0234489440918 39.89618682861328 C -46.88219833374023 41.79043579101562 -45.40362548828125 43.41917419433594 -43.62881088256836 44.73715972900391 C -41.03720474243164 46.66386413574219 -37.97977828979492 47.80268096923828 -34.78186798095703 48.03327941894531 C -34.08273315429688 47.97954559326172 -33.38427734375 47.94458770751953 -32.69593811035156 47.92877197265625 C -32.72359466552734 47.37652587890625 -32.74280548095703 46.79567718505859 -32.75337219238281 46.19122314453125 Z M -27.75012969970703 48.14279174804688 C -27.56557083129883 45.14363098144531 -27.71731948852539 41.48044586181641 -27.86266326904297 38.64547729492188 C -28.00581741333008 41.46690368652344 -28.15585708618164 45.125 -27.97525405883789 48.11885070800781 C -27.90030670166016 48.12660217285156 -27.82524490356445 48.13458251953125 -27.75012969970703 48.14279174804688 Z M -30.27739715576172 52.6588134765625 C -30.51931762695312 52.64725494384766 -30.7669563293457 52.63828277587891 -31.03161239624023 52.6314697265625 C -31.88901519775391 52.73137664794922 -32.73383712768555 52.78199768066406 -33.54399871826172 52.78199768066406 C -33.90589141845703 52.78199768066406 -34.29216766357422 52.77035522460938 -34.72268676757812 52.74642181396484 C -42.88727569580078 53.45354461669922 -50.46351623535156 57.17284393310547 -56.06156158447266 63.22421264648438 C -61.70758438110352 69.32744598388672 -64.81700134277344 77.25552368164062 -64.81700134277344 85.54799652099609 C -64.81700134277344 103.7078704833984 -50.02896118164062 118.4819946289062 -31.85199928283691 118.4819946289062 C -13.67283630371094 118.4819946289062 1.116989135742188 103.7078704833984 1.116989135742188 85.54799652099609 C 1.116989135742188 81.596435546875 0.4202499389648438 77.73030853271484 -0.9538726806640625 74.05703735351562 C -2.281398773193359 70.50829315185547 -4.203109741210938 67.23345947265625 -6.665611267089844 64.32347106933594 C -11.61504745483398 58.47466278076172 -18.45994186401367 54.508056640625 -25.94502639770508 53.15023040771484 C -25.97842407226562 53.14763641357422 -26.0250129699707 53.14302062988281 -26.07878494262695 53.1334228515625 C -27.46788787841797 52.88571929931641 -28.86963653564453 52.72670745849609 -30.24483489990234 52.66084289550781 L -30.26621246337891 52.65983581542969 L -30.27739715576172 52.6588134765625 Z" stroke="none" fill="#ebd08e"/>
    </g>
    <g id="Path_261" data-name="Path 261" fill="#fff">
      <path d="M -61.01799774169922 87.39900207519531 C -62.03863906860352 87.39900207519531 -62.86899566650391 86.56864166259766 -62.86899566650391 85.54799652099609 C -62.86899566650391 68.465576171875 -48.95482635498047 54.5680046081543 -31.85199737548828 54.5680046081543 C -30.83135795593262 54.5680046081543 -30.00099754333496 55.39790344238281 -30.00099754333496 56.41799545288086 C -30.00099754333496 57.43864440917969 -30.83135795593262 58.26900482177734 -31.85199737548828 58.26900482177734 C -46.91408920288086 58.26900482177734 -59.16799926757812 70.50630187988281 -59.16799926757812 85.54799652099609 C -59.16799926757812 86.56864166259766 -59.99790573120117 87.39900207519531 -61.01799774169922 87.39900207519531 Z" stroke="none"/>
      <path d="M -31.85199737548828 55.0679931640625 C -48.67899703979492 55.0679931640625 -62.36899566650391 68.74099731445312 -62.36899566650391 85.54799652099609 C -62.36899566650391 86.29399108886719 -61.76399993896484 86.89900207519531 -61.01799774169922 86.89900207519531 C -60.27199935913086 86.89900207519531 -59.66799926757812 86.29399108886719 -59.66799926757812 85.54799652099609 C -59.66799926757812 70.23100280761719 -47.18999862670898 57.76899719238281 -31.85199737548828 57.76899719238281 C -31.10600662231445 57.76899719238281 -30.50099945068359 57.16400146484375 -30.50099945068359 56.41799163818359 C -30.50099945068359 55.6719970703125 -31.10600662231445 55.0679931640625 -31.85199737548828 55.0679931640625 M -31.85199737548828 54.0679931640625 C -30.55564880371094 54.0679931640625 -29.50099945068359 55.12220764160156 -29.50099945068359 56.41799163818359 C -29.50099945068359 57.71434783935547 -30.55564880371094 58.76899719238281 -31.85199737548828 58.76899719238281 C -46.63838577270508 58.76899719238281 -58.66799926757812 70.78200531005859 -58.66799926757812 85.54799652099609 C -58.66799926757812 86.84434509277344 -59.72220611572266 87.89900207519531 -61.01799774169922 87.89900207519531 C -62.31434631347656 87.89900207519531 -63.36899566650391 86.84434509277344 -63.36899566650391 85.54799652099609 C -63.36899566650391 68.18986511230469 -49.23052597045898 54.0679931640625 -31.85199737548828 54.0679931640625 Z" stroke="none" fill="#ebd08e"/>
    </g>
  </g>
</svg>
