<svg xmlns="http://www.w3.org/2000/svg" width="60.944" height="92.356" viewBox="0 0 60.944 92.356">
  <g id="Group_397" data-name="Group 397" transform="translate(-9387.416 -2136.666)">
    <path id="Path_258" data-name="Path 258" d="M-10.495,73.994H-49.131A10.471,10.471,0,0,0-59.6,84.465v24.919a28.275,28.275,0,0,0,2.339,11.556,30.365,30.365,0,0,0,6.326,9.563,28.577,28.577,0,0,0,9.563,6.326,25.068,25.068,0,0,0,5.24,1.619v20.408a6.47,6.47,0,0,0,6.5,6.494,6.462,6.462,0,0,0,6.494-6.494V138.635a29.616,29.616,0,0,0,5.24-1.628,30.482,30.482,0,0,0,9.573-6.316,28.592,28.592,0,0,0,6.316-9.573A28.131,28.131,0,0,0,.341,109.561v-25.1A10.908,10.908,0,0,0-10.495,73.994Zm-16.974,65.361v19.679a2.394,2.394,0,0,1-2.349,2.349,2.385,2.385,0,0,1-2.339-2.349V139.355Zm23.478-29.972A25.816,25.816,0,0,1-29.817,135.2h0a25.814,25.814,0,0,1-25.817-25.817V84.465a6.286,6.286,0,0,1,6.316-6.326h38.646a6.28,6.28,0,0,1,6.316,6.326v24.919Z" transform="translate(9447.519 2063.172)" fill="#fff" stroke="#ebd08e" stroke-width="1"/>
    <path id="Path_259" data-name="Path 259" d="M-20.875,75.094H-55.193a3.42,3.42,0,0,0-3.425,3.425v23.659a3.428,3.428,0,0,0,3.425,3.435h34.318a3.434,3.434,0,0,0,3.425-3.435V78.341A3.393,3.393,0,0,0-20.875,75.094Zm-.73,26.176H-54.472V79.062H-21.6Z" transform="translate(9455.742 2072.367)" fill="#fff" stroke="#ebd08e" stroke-width="1"/>
    <circle id="Ellipse_242" data-name="Ellipse 242" cx="3.431" cy="3.431" r="3.431" transform="translate(9400.549 2180.865)" fill="#fff" stroke="#ebd08e" stroke-width="1"/>
    <circle id="Ellipse_243" data-name="Ellipse 243" cx="3.431" cy="3.431" r="3.431" transform="translate(9428 2180.865)" fill="#fff" stroke="#ebd08e" stroke-width="1"/>
  </g>
</svg>
