<svg xmlns="http://www.w3.org/2000/svg" width="84.423" height="93.356" viewBox="0 0 84.423 93.356">
  <g id="Group_395" data-name="Group 395" transform="translate(-66.268 -104.118)">
    <g id="Path_256" data-name="Path 256" transform="translate(0 17.601)" fill="#fff">
      <path d="M 114.586784362793 179.3731842041016 C 113.4934005737305 179.3732147216797 112.4405517578125 178.9761199951172 111.6221466064453 178.2550506591797 L 111.6178588867188 178.2512664794922 L 111.6136474609375 178.2473907470703 C 110.588508605957 177.3016052246094 109.9805526733398 175.9626007080078 109.9451370239258 174.572998046875 L 108.4952392578125 142.6342315673828 L 107.4730758666992 142.6342315673828 L 106.2564239501953 174.6019592285156 C 106.2214889526367 175.9807434082031 105.6254043579102 177.3086242675781 104.6207122802734 178.2455749511719 L 104.6120223999023 178.253662109375 L 104.6029815673828 178.2613372802734 C 103.7837142944336 178.9556732177734 102.7383041381836 179.3380737304688 101.6593170166016 179.3380889892578 C 101.5112075805664 179.3380889892578 101.3613433837891 179.3308258056641 101.2134017944336 179.3164825439453 L 98.25862884521484 179.3164825439453 L 98.24185180664062 179.3164825439453 L 98.22509002685547 179.3153533935547 C 95.42824554443359 179.1273803710938 93.30101776123047 176.7005004882812 93.48313903808594 173.9054412841797 L 93.48370361328125 173.8968200683594 L 93.48455810546875 173.8882446289062 L 93.50422668457031 173.6913452148438 L 95.56629180908203 141.0635223388672 L 95.56629180908203 119.7952117919922 L 72.23413848876953 119.7952117919922 C 69.22010040283203 119.7952117919922 66.76800537109375 117.3431396484375 66.76800537109375 114.3291168212891 C 66.76800537109375 111.3150787353516 69.22010040283203 108.8629913330078 72.23413848876953 108.8629913330078 L 144.7239074707031 108.8629913330078 L 144.7300720214844 108.8629913330078 L 144.7362365722656 108.8631439208984 C 147.7207489013672 108.9367599487305 150.1162719726562 111.3322906494141 150.1898498535156 114.3167877197266 L 150.1901702880859 114.32958984375 L 150.1898193359375 114.3423919677734 C 150.1108551025391 117.3152236938477 147.7161712646484 119.7103042602539 144.7381134033203 119.7950134277344 L 144.7310180664062 119.7952117919922 L 144.7239074707031 119.7952117919922 L 120.3985290527344 119.7952117919922 L 120.3985290527344 141.1231842041016 L 122.7120819091797 173.6625671386719 C 123.0573043823242 176.4448852539062 121.0807571411133 178.99609375 118.3000030517578 179.3535766601562 L 118.2915344238281 179.3546600341797 L 118.2830352783203 179.3554534912109 L 118.1183700561523 179.3709411621094 L 118.0950241088867 179.3731231689453 L 118.0715789794922 179.3731231689453 L 114.6082077026367 179.3731231689453 L 114.586784362793 179.3731842041016 Z M 98.37709045410156 176.3867340087891 L 101.330924987793 176.3867340087891 L 101.3691482543945 176.3867340087891 L 101.4069290161133 176.3925476074219 C 101.4886703491211 176.4051208496094 101.5720825195312 176.4114990234375 101.6548385620117 176.4114990234375 C 102.0246047973633 176.4114990234375 102.3881149291992 176.2844390869141 102.6815567016602 176.0531463623047 C 103.0944976806641 175.6213226318359 103.3238067626953 175.0377655029297 103.3115158081055 174.447509765625 L 103.3112258911133 174.43359375 L 103.3117065429688 174.4196929931641 L 104.505615234375 140.1303405761719 L 104.5224227905273 139.6477508544922 L 105.0053176879883 139.6477508544922 L 110.9595336914062 139.6477508544922 L 111.4376373291016 139.6477508544922 L 111.4590377807617 140.1253509521484 L 112.9977340698242 174.4610290527344 L 112.998161315918 174.4704742431641 L 112.9982223510742 174.4799194335938 C 113.0023345947266 175.0669250488281 113.243537902832 175.6382446289062 113.6606369018555 176.0506896972656 C 113.9438552856445 176.279296875 114.2973861694336 176.4049987792969 114.6583480834961 176.4049987792969 C 114.7275619506836 176.4049987792969 114.7974395751953 176.4003448486328 114.8660354614258 176.3911590576172 L 114.8990707397461 176.3867340087891 L 114.9323959350586 176.3867340087891 L 118.0040588378906 176.3867340087891 C 119.1286468505859 176.2118530273438 119.9148559570312 175.1688842773438 119.779426574707 174.0347595214844 L 119.7696838378906 174.0054931640625 L 119.7651824951172 173.9428863525391 L 117.4133453369141 141.2437744140625 L 117.4120559692383 141.2258605957031 L 117.4120559692383 141.2079010009766 L 117.4120559692383 117.3087921142578 L 117.4120559692383 116.8087921142578 L 117.9120559692383 116.8087921142578 L 144.709716796875 116.8087921142578 C 146.0552978515625 116.7293319702148 147.1216888427734 115.6675643920898 147.2028503417969 114.3291015625 C 147.1213531494141 112.9815063476562 146.0556335449219 111.9195556640625 144.7115173339844 111.8494720458984 L 72.24652099609375 111.8494720458984 C 70.90241241455078 111.9195556640625 69.83669281005859 112.9815139770508 69.75521087646484 114.3291091918945 C 69.83658599853516 115.6720352172852 70.90259552001953 116.7339706420898 72.24739837646484 116.8087921142578 L 98.05275726318359 116.8087921142578 L 98.55275726318359 116.8087921142578 L 98.55275726318359 117.3087921142578 L 98.55275726318359 141.1409759521484 L 98.55275726318359 141.1566314697266 L 98.55178070068359 141.1722564697266 L 96.49840545654297 173.9383087158203 L 96.49709320068359 173.959228515625 L 96.49403381347656 173.9799652099609 C 96.32477569580078 175.1276397705078 97.11859893798828 176.1998443603516 98.26502990722656 176.3750915527344 L 98.37709045410156 176.3867340087891 Z" stroke="none"/>
      <path d="M 114.5867691040039 178.8731842041016 C 114.593864440918 178.8731842041016 114.6011047363281 178.8731689453125 114.6082077026367 178.8731231689453 L 118.0715789794922 178.8731231689453 L 118.2362518310547 178.8576507568359 C 120.7579574584961 178.5334625244141 122.5333938598633 176.2279815673828 122.2142944335938 173.7114715576172 L 119.8985290527344 141.1409759521484 L 119.8985290527344 119.2952117919922 L 144.7239074707031 119.2952117919922 C 147.4360046386719 119.2180709838867 149.6179504394531 117.0412139892578 149.6900024414062 114.3291168212891 C 149.6231384277344 111.6170806884766 147.4360046386719 109.4298934936523 144.7239074707031 109.3629913330078 L 72.23413848876953 109.3629913330078 C 69.49117279052734 109.3629913330078 67.26800537109375 111.5861663818359 67.26800537109375 114.3291168212891 C 67.26800537109375 117.0720367431641 69.49117279052734 119.2952117919922 72.23413848876953 119.2952117919922 L 96.06629180908203 119.2952117919922 L 96.06629180908203 141.0792388916016 L 94.00264739990234 173.7320709228516 L 93.98207855224609 173.9379425048828 C 93.81743621826172 176.4647064208984 95.73184967041016 178.6466522216797 98.25862884521484 178.8164825439453 L 101.2382965087891 178.8164825439453 C 101.3789138793945 178.8309326171875 101.5193634033203 178.8380889892578 101.6593017578125 178.8380889892578 C 102.6153030395508 178.8380737304688 103.5434722900391 178.5038757324219 104.2797012329102 177.8798980712891 C 105.1957397460938 177.0256500244141 105.7257843017578 175.8368682861328 105.7566604614258 174.5863189697266 L 106.9917449951172 142.1342315673828 L 108.9730606079102 142.1342315673828 L 110.4448623657227 174.5554656982422 C 110.4757843017578 175.8214569091797 111.0212478637695 177.0205535888672 111.9526901245117 177.8798980712891 C 112.6833038330078 178.5236206054688 113.6165924072266 178.8732147216797 114.5867691040039 178.8731842041016 M 72.23413848876953 111.3494720458984 L 144.7239074707031 111.3494720458984 C 146.334716796875 111.426628112793 147.6212463378906 112.7183685302734 147.70361328125 114.3291168212891 C 147.6212463378906 115.9398880004883 146.334716796875 117.221321105957 144.7239074707031 117.3087921142578 L 117.9120559692383 117.3087921142578 L 117.9120559692383 141.2079010009766 L 120.2638931274414 173.9070281982422 L 120.2690353393555 173.9224700927734 C 120.4697723388672 175.3582611083984 119.4765243530273 176.6859893798828 118.0407180786133 176.8867340087891 L 114.9323959350586 176.8867340087891 C 114.8409652709961 176.8989715576172 114.7494888305664 176.9049987792969 114.6583480834961 176.9049987792969 C 114.1749801635742 176.9049987792969 113.7034912109375 176.7353057861328 113.326789855957 176.4235687255859 C 112.8018569946289 175.9140472412109 112.5033493041992 175.2141571044922 112.4982376098633 174.4834136962891 L 110.9595336914062 140.1477508544922 L 105.0053176879883 140.1477508544922 L 103.8114013671875 174.4370880126953 C 103.8268356323242 175.1781158447266 103.5386505126953 175.8935089111328 103.0188446044922 176.4235687255859 C 102.630241394043 176.7403411865234 102.1481094360352 176.9115142822266 101.6548233032227 176.9114990234375 C 101.5471267700195 176.9114990234375 101.4388122558594 176.9033203125 101.330924987793 176.8867340087891 L 98.35121154785156 176.8867340087891 L 98.20199584960938 176.8712310791016 C 96.77648162841797 176.6602630615234 95.78840637207031 175.3376617431641 95.99938201904297 173.9070281982422 L 98.05275726318359 141.1409759521484 L 98.05275726318359 117.3087921142578 L 72.23413848876953 117.3087921142578 C 70.62335205078125 117.2264251708984 69.33680725097656 115.9398880004883 69.25444030761719 114.3291168212891 C 69.33680725097656 112.7183685302734 70.62335205078125 111.426628112793 72.23413848876953 111.3494720458984 M 114.5868072509766 179.8731842041016 L 114.5867691040039 179.8731842041016 C 113.3716354370117 179.8732299804688 112.2013854980469 179.4317932128906 111.291618347168 178.6302185058594 L 111.2830123901367 178.6226501464844 L 111.2746047973633 178.6148834228516 C 110.1519165039062 177.5791015625 109.4856109619141 176.1128692626953 109.4454345703125 174.5907440185547 L 108.0174331665039 143.1342315673828 L 107.9544143676758 143.1342315673828 L 106.7561874389648 174.6177673339844 C 106.7170639038086 176.1288299560547 106.0632553100586 177.5839996337891 104.9617156982422 178.6112365722656 L 104.9443588256836 178.6274261474609 L 104.9262466430664 178.6427764892578 C 104.0167846679688 179.4135589599609 102.8565673828125 179.8380584716797 101.6593246459961 179.8380889892578 C 101.5034027099609 179.8380889892578 101.3457412719727 179.8308258056641 101.1898727416992 179.8164825439453 L 98.25862884521484 179.8164825439453 L 98.22505950927734 179.8164825439453 L 98.19157409667969 179.8142242431641 C 95.12019348144531 179.6078033447266 92.7841796875 176.9425506591797 92.98419189453125 173.8729248046875 L 92.98531341552734 173.855712890625 L 92.98703765869141 173.8385467529297 L 93.00577545166016 173.6509552001953 L 95.06629180908203 141.0476226806641 L 95.06629180908203 120.2952117919922 L 72.23413848876953 120.2952117919922 C 68.94440460205078 120.2952117919922 66.26800537109375 117.6188354492188 66.26800537109375 114.3291168212891 C 66.26800537109375 111.0393829345703 68.94440460205078 108.3629913330078 72.23413848876953 108.3629913330078 L 144.7239074707031 108.3629913330078 L 144.7362365722656 108.3629913330078 L 144.7485656738281 108.3632888793945 C 147.9998779296875 108.443489074707 150.6095428466797 111.0531692504883 150.689697265625 114.3044662475586 L 150.6903228759766 114.3300704956055 L 150.6896514892578 114.3556671142578 C 150.6036224365234 117.5937805175781 147.9956359863281 120.2025604248047 144.7523345947266 120.2948150634766 L 144.7381286621094 120.2952117919922 L 144.7239074707031 120.2952117919922 L 120.8985290527344 120.2952117919922 L 120.8985290527344 141.1055297851562 L 123.2099075317383 173.6143035888672 C 123.5809326171875 176.6639099121094 121.4125595092773 179.4575500488281 118.3637466430664 179.8494873046875 L 118.3468246459961 179.8516540527344 L 118.3298263549805 179.8532562255859 L 118.1651611328125 179.8687286376953 L 118.1184692382812 179.8731231689453 L 118.0715789794922 179.8731231689453 L 114.6082077026367 179.8731231689453 L 114.5868072509766 179.8731842041016 L 114.5868072509766 179.8731842041016 Z M 98.40296936035156 175.8867340087891 L 101.330924987793 175.8867340087891 L 101.407356262207 175.8867340087891 L 101.4829025268555 175.8983459472656 C 101.5396118164062 175.9070739746094 101.5974960327148 175.9114990234375 101.6549224853516 175.9114990234375 C 101.9013442993164 175.9114990234375 102.1443481445312 175.8300933837891 102.344856262207 175.6812591552734 C 102.6514358520508 175.3473358154297 102.820930480957 174.9048004150391 102.8116226196289 174.4579162597656 L 102.81103515625 174.4300994873047 L 102.81201171875 174.4022979736328 L 104.0059280395508 140.1129455566406 L 104.0395278930664 139.1477508544922 L 105.0053176879883 139.1477508544922 L 110.9595336914062 139.1477508544922 L 111.9157257080078 139.1477508544922 L 111.9585342407227 140.1029815673828 L 113.4972381591797 174.4386444091797 L 113.4980850219727 174.45751953125 L 113.4982147216797 174.4764251708984 C 113.5013427734375 174.9232635498047 113.681510925293 175.3583526611328 113.9939498901367 175.6768188476562 C 114.1850891113281 175.82421875 114.4195404052734 175.9049987792969 114.6583480834961 175.9049987792969 C 114.705451965332 175.9049987792969 114.7529907226562 175.9018402099609 114.7996597290039 175.8955841064453 L 114.8657379150391 175.8867340087891 L 114.9323959350586 175.8867340087891 L 117.9628143310547 175.8867340087891 C 118.7871856689453 175.7396545410156 119.3635177612305 174.9783477783203 119.2879180908203 174.1413269042969 L 119.2754669189453 174.1039581298828 L 119.266471862793 173.978759765625 L 116.9146347045898 141.2796325683594 L 116.9120559692383 141.2438201904297 L 116.9120559692383 141.2079010009766 L 116.9120559692383 117.3087921142578 L 116.9120559692383 116.3087921142578 L 117.9120559692383 116.3087921142578 L 144.6941833496094 116.3087921142578 C 145.7696685791016 116.2385101318359 146.6221618652344 115.3955535888672 146.7017059326172 114.3290557861328 C 146.6219177246094 113.2549057006836 145.7705993652344 112.4115524291992 144.6976928710938 112.3494720458984 L 72.26033782958984 112.3494720458984 C 71.18744659423828 112.4115524291992 70.33612823486328 113.2549362182617 70.25634002685547 114.3290786743164 C 70.3360595703125 115.3993606567383 71.18793487548828 116.2426147460938 72.26215362548828 116.3087921142578 L 98.05275726318359 116.3087921142578 L 99.05275726318359 116.3087921142578 L 99.05275726318359 117.3087921142578 L 99.05275726318359 141.1409759521484 L 99.05275726318359 141.1722869873047 L 99.05080413818359 141.2035217285156 L 96.99742889404297 173.9695739746094 L 96.99480438232422 174.0114288330078 L 96.98867797851562 174.0529174804688 C 96.86006927490234 174.9250335693359 97.46042633056641 175.7400665283203 98.32950592041016 175.8791046142578 L 98.40296936035156 175.8867340087891 Z" stroke="none" fill="#ebd08e"/>
    </g>
    <g id="Path_257" data-name="Path 257" transform="translate(25.603 0)" fill="#fff">
      <path d="M 82.38200378417969 123.4909057617188 C 79.85936737060547 123.4909057617188 77.48857879638672 122.5097961425781 75.70638275146484 120.7283172607422 C 73.92439270019531 118.9470367431641 72.94300842285156 116.5778121948242 72.94300842285156 114.0570678710938 C 72.94300842285156 111.5340881347656 73.92436218261719 109.1632614135742 75.70631408691406 107.3813095092773 C 77.48825836181641 105.599365234375 79.85905456542969 104.6180114746094 82.38200378417969 104.6180114746094 C 84.90275573730469 104.6180114746094 87.27197265625 105.5993957519531 89.05325317382812 107.3813858032227 C 90.83473205566406 109.1635818481445 91.81584167480469 111.5343856811523 91.81584167480469 114.0570678710938 C 91.81584167480469 116.577507019043 90.834716796875 118.9467163085938 89.05318450927734 120.7282485961914 C 87.27165222167969 122.5097808837891 84.90244293212891 123.4909057617188 82.38200378417969 123.4909057617188 Z M 82.38200378417969 107.6044616699219 C 78.82405853271484 107.6044616699219 75.929443359375 110.4990921020508 75.929443359375 114.0570678710938 C 75.929443359375 117.6121597290039 78.82405853271484 120.5044250488281 82.38200378417969 120.5044250488281 C 85.93711853027344 120.5044250488281 88.82940673828125 117.6121597290039 88.82940673828125 114.0570678710938 C 88.82940673828125 110.4990921020508 85.93711853027344 107.6044616699219 82.38200378417969 107.6044616699219 Z" stroke="none"/>
      <path d="M 82.38200378417969 122.9909057617188 C 87.31721496582031 122.9909057617188 91.31584167480469 118.9922790527344 91.31584167480469 114.0570678710938 C 91.31584167480469 109.1166076660156 87.31721496582031 105.1180114746094 82.38200378417969 105.1180114746094 C 77.44163513183594 105.1180114746094 73.44300842285156 109.1166076660156 73.44300842285156 114.0570678710938 C 73.44300842285156 118.9922790527344 77.44163513183594 122.9909057617188 82.38200378417969 122.9909057617188 M 82.38200378417969 107.1044616699219 C 86.22108459472656 107.1044616699219 89.32940673828125 110.2179260253906 89.32940673828125 114.0570678710938 C 89.32940673828125 117.8961181640625 86.22108459472656 121.0044250488281 82.38200378417969 121.0044250488281 C 78.54290771484375 121.0044250488281 75.429443359375 117.8961181640625 75.429443359375 114.0570678710938 C 75.429443359375 110.2179260253906 78.54290771484375 107.1044616699219 82.38200378417969 107.1044616699219 M 82.38200378417969 123.9909057617188 C 79.72584533691406 123.9909057617188 77.22952270507812 122.9578170776367 75.3529052734375 121.0819396972656 C 73.47642517089844 119.2062149047852 72.44300842285156 116.7113952636719 72.44300842285156 114.0570678710938 C 72.44300842285156 111.4005355834961 73.47637176513672 108.9041519165039 75.35275268554688 107.0277557373047 C 77.22913360595703 105.1513748168945 79.72550201416016 104.1180114746094 82.38200378417969 104.1180114746094 C 85.03634643554688 104.1180114746094 87.53115844726562 105.1514282226562 89.40687561035156 107.0279006958008 C 91.28275299072266 108.9045257568359 92.31584167480469 111.4008712768555 92.31584167480469 114.0570678710938 C 92.31584167480469 116.711067199707 91.28270721435547 119.2058258056641 89.40673828125 121.0818023681641 C 87.53076171875 122.9577713012695 85.03600311279297 123.9909057617188 82.38200378417969 123.9909057617188 Z M 82.38200378417969 108.1044616699219 C 79.09975433349609 108.1044616699219 76.429443359375 110.774787902832 76.429443359375 114.0570678710938 C 76.429443359375 117.3364562988281 79.09975433349609 120.0044250488281 82.38200378417969 120.0044250488281 C 85.66141510009766 120.0044250488281 88.32940673828125 117.3364562988281 88.32940673828125 114.0570678710938 C 88.32940673828125 110.774787902832 85.66141510009766 108.1044616699219 82.38200378417969 108.1044616699219 Z" stroke="none" fill="#ebd08e"/>
    </g>
  </g>
</svg>
