<svg xmlns="http://www.w3.org/2000/svg" width="158.571" height="148.378" viewBox="0 0 158.571 148.378">
  <g id="Group_373" data-name="Group 373" transform="translate(-34.555 -36.889)">
    <g id="Group_343" data-name="Group 343" transform="translate(34.555 36.889)">
      <g id="Group_340" data-name="Group 340" transform="translate(24.934 63.544)">
        <path id="Path_198" data-name="Path 198" d="M59.984,114.278H45.974v-.954c4,0,5.544-1.253,8.108-7.691L70.059,65.99H70.6L86.87,109.509c.9,2.323,2.325,3.815,6.14,3.815v.954H79v-.954c3.758,0,5.367-.655,4.234-3.695L78.824,97.466H59.508L56.645,104.8c-2.86,7.332-2.026,8.525,3.339,8.525ZM60.641,94.6H77.749L69.522,71.89Z" transform="translate(-45.974 -65.99)" fill="#577060"/>
        <path id="Path_199" data-name="Path 199" d="M77.358,68.226c-8.586,0-10.075,3.28-10.254,13.058h-.6V66.617h40.538V81.284h-.6c-.179-9.778-1.668-13.058-10.254-13.058H88.566v40.182c0,3.457,1.072,4.173,7.094,4.173v.954H77.9v-.954c6.02,0,7.092-.775,7.092-4.114V68.226Z" transform="translate(-21.67 -65.248)" fill="#577060"/>
      </g>
      <g id="Group_342" data-name="Group 342">
        <g id="Group_341" data-name="Group 341">
          <path id="Path_200" data-name="Path 200" d="M46.052,60.488l-1.911-.448-2.376,3.725,1.214,1.544-1.339,2.1-7.086-9.234,1.478-2.319L47.39,58.391Zm-8.8-2.221,3.105,3.889,1.727-2.712Z" transform="translate(-34.555 -14.443)" fill="#aad6b2"/>
          <path id="Path_201" data-name="Path 201" d="M44.048,61.245l-.5-2.125a4.409,4.409,0,0,0,3.328-1.367c.834-.889.806-1.7.338-2.136-1.387-1.3-4.474,3.93-7.479,1.111-1.328-1.247-1.417-3.36.242-5.129a5.517,5.517,0,0,1,3.858-1.882l.435,2.079a4.285,4.285,0,0,0-2.922,1.365c-.635.677-.681,1.352-.2,1.8,1.258,1.179,4.452-3.933,7.433-1.135,1.459,1.371,1.631,3.393-.258,5.411A5.76,5.76,0,0,1,44.048,61.245Z" transform="translate(-29.612 -21.705)" fill="#aad6b2"/>
          <path id="Path_202" data-name="Path 202" d="M49.827,58.069l-6.527-8.8,5.852-4.35,1.225,1.649-4.094,3.042,1.371,1.845,4-2.976,1.223,1.649-4,2.976,1.487,2,4.094-3.042,1.221,1.649Z" transform="translate(-24.205 -27.381)" fill="#aad6b2"/>
          <path id="Path_203" data-name="Path 203" d="M52.186,53.089l.273-2.166a4.414,4.414,0,0,0,3.6-.114c1.1-.544,1.352-1.31,1.068-1.882-.845-1.708-5.572,2.116-7.4-1.572-.808-1.631-.146-3.642,2.029-4.719a5.542,5.542,0,0,1,4.278-.413l-.323,2.1a4.279,4.279,0,0,0-3.219.258c-.83.411-1.111,1.024-.823,1.611.766,1.544,5.553-2.125,7.365,1.535.889,1.793.338,3.747-2.14,4.974A5.773,5.773,0,0,1,52.186,53.089Z" transform="translate(-16.993 -30.878)" fill="#aad6b2"/>
          <path id="Path_204" data-name="Path 204" d="M56.13,46.5A5.387,5.387,0,1,1,66.522,43.7,5.387,5.387,0,1,1,56.13,46.5Zm8.217-2.21c-.535-1.981-2.114-3.153-3.946-2.66-1.849.5-2.627,2.306-2.094,4.284s2.112,3.153,3.961,2.657C64.1,48.074,64.876,46.253,64.347,44.288Z" transform="translate(-9.293 -33.878)" fill="#aad6b2"/>
          <path id="Path_205" data-name="Path 205" d="M70.191,49.165l-2.267-3.754-1.6.1.247,3.88-2.188.138-.694-10.924,4.808-.306a3.32,3.32,0,0,1,3.692,3.3,3.135,3.135,0,0,1-2.059,3.387l2.592,4.013Zm-.253-7.433a1.431,1.431,0,0,0-1.622-1.363L66,40.516l.188,2.948,2.312-.144A1.438,1.438,0,0,0,69.938,41.732Z" transform="translate(-0.076 -35.227)" fill="#aad6b2"/>
          <path id="Path_206" data-name="Path 206" d="M70.473,50.98l.952-10.9,2.184.188L72.657,51.17Zm2.284-11.8-1.369-.118,2.269-2.177,1.8.157Z" transform="translate(7.957 -36.889)" fill="#aad6b2"/>
          <path id="Path_207" data-name="Path 207" d="M81.817,50.887l-.183-1.954-4.282-1.066L76.273,49.51l-2.413-.6,6.494-9.66,2.666.662,1.21,11.575Zm-.692-9.047L78.43,46.022l3.116.773Z" transform="translate(11.965 -34.096)" fill="#aad6b2"/>
          <path id="Path_208" data-name="Path 208" d="M90.251,56.089l-.389-8.658-3.778,6.059-1.86-1.162,5.789-9.289,1.913,1.192.413,8.359,3.636-5.832,1.863,1.159-5.789,9.289Z" transform="translate(24.232 -29.609)" fill="#aad6b2"/>
          <path id="Path_209" data-name="Path 209" d="M92.208,52.374,96.73,47.62l1.611,1.533-4.476,4.708a2.423,2.423,0,1,0,3.5,3.332l4.476-4.708,1.622,1.544-4.52,4.758c-1.867,1.961-4.254,2.273-6.527.109S90.341,54.334,92.208,52.374Z" transform="translate(31.97 -24.188)" fill="#aad6b2"/>
          <path id="Path_210" data-name="Path 210" d="M95.573,62.012l7.252-5.142-1.745-2.454,1.673-1.186,4.758,6.695-1.67,1.186L104.1,58.669,96.85,63.812Z" transform="translate(37.664 -17.548)" fill="#aad6b2"/>
          <path id="Path_211" data-name="Path 211" d="M100.675,69.184l2.679-3.47-.677-1.456-3.529,1.636L98.227,63.9l9.927-4.6,2.029,4.369a3.318,3.318,0,0,1-1.738,4.636,3.14,3.14,0,0,1-3.9-.694l-2.8,3.867Zm6.837-2.928a1.425,1.425,0,0,0,.679-2l-.974-2.1-2.679,1.24.974,2.1A1.438,1.438,0,0,0,107.512,66.256Z" transform="translate(40.806 -10.36)" fill="#aad6b2"/>
          <path id="Path_212" data-name="Path 212" d="M100.667,69.085l10.514-3.046.611,2.109-10.514,3.044Z" transform="translate(43.694 -2.388)" fill="#aad6b2"/>
          <path id="Path_213" data-name="Path 213" d="M106.793,70.677a5.387,5.387,0,0,1,6.313,4.738,4.657,4.657,0,0,1-2.111,4.6l-1.214-1.745a2.789,2.789,0,0,0,1.275-2.592,3.616,3.616,0,0,0-7.136.908,2.778,2.778,0,0,0,1.887,2.19l-.723,1.994a4.691,4.691,0,0,1-3.214-3.922A5.4,5.4,0,0,1,106.793,70.677Z" transform="translate(45.057 3.036)" fill="#aad6b2"/>
          <path id="Path_214" data-name="Path 214" d="M102.2,77.95l10.935.306-.059,2.192-10.935-.306Z" transform="translate(45.437 11.71)" fill="#aad6b2"/>
          <path id="Path_215" data-name="Path 215" d="M108.1,82.13a5.387,5.387,0,1,1-6.588,4.21A5.334,5.334,0,0,1,108.1,82.13Zm-1.627,8.35c2.015.391,3.762-.513,4.125-2.376.367-1.878-.915-3.371-2.928-3.76-2-.386-3.762.511-4.129,2.391C103.175,88.6,104.472,90.093,106.47,90.48Z" transform="translate(44.561 16.509)" fill="#aad6b2"/>
          <path id="Path_216" data-name="Path 216" d="M99.446,95.432l8.5-1.716-6.568-2.8.86-2.013,10.073,4.289-.887,2.074-8.2,1.692,6.326,2.7-.86,2.015L98.616,97.378Z" transform="translate(41.266 24.671)" fill="#aad6b2"/>
          <path id="Path_217" data-name="Path 217" d="M96.157,101.593l1.893.515,2.5-3.633-1.159-1.585,1.411-2.048,6.76,9.472-1.557,2.262-11.263-2.937Zm8.712,2.531-2.965-3.992-1.823,2.644Z" transform="translate(36.686 31.702)" fill="#aad6b2"/>
          <path id="Path_218" data-name="Path 218" d="M95.707,100.589l7.771,7.717-1.557,1.568L95.608,103.6l-3.068,3.085-1.456-1.446Z" transform="translate(32.351 38.505)" fill="#aad6b2"/>
        </g>
      </g>
    </g>
  </g>
</svg>
