<svg xmlns="http://www.w3.org/2000/svg" width="78.697" height="73.639" viewBox="0 0 78.697 73.639">
  <g id="Group_344" data-name="Group 344" transform="translate(-34.555 -36.889)">
    <g id="Group_343" data-name="Group 343" transform="translate(34.555 36.889)">
      <g id="Group_340" data-name="Group 340" transform="translate(12.375 31.536)">
        <path id="Path_198" data-name="Path 198" d="M52.927,89.955H45.974v-.474c1.983,0,2.751-.622,4.024-3.817L57.927,65.99h.267l8.077,21.6c.444,1.153,1.154,1.893,3.047,1.893v.474H62.365v-.474c1.865,0,2.664-.325,2.1-1.834l-2.189-6.036H52.691L51.27,85.25c-1.42,3.639-1.006,4.231,1.657,4.231Zm.326-9.764h8.491L57.66,68.918Z" transform="translate(-45.974 -65.99)" fill="#577060"/>
        <path id="Path_199" data-name="Path 199" d="M71.893,67.416c-4.261,0-5,1.628-5.089,6.48h-.3V66.617H86.627V73.9h-.3c-.089-4.853-.828-6.48-5.089-6.48H77.455V87.358c0,1.715.532,2.071,3.521,2.071V89.9H72.159v-.474c2.988,0,3.52-.385,3.52-2.042V67.416Z" transform="translate(-44.256 -65.938)" fill="#577060"/>
      </g>
      <g id="Group_342" data-name="Group 342">
        <g id="Group_341" data-name="Group 341">
          <path id="Path_200" data-name="Path 200" d="M40.261,58.154l-.948-.222L38.133,59.78l.6.766-.664,1.041L34.555,57l.734-1.151,5.636,1.259Zm-4.365-1.1,1.541,1.93.857-1.346Z" transform="translate(-34.555 -35.302)" fill="#aad6b2"/>
          <path id="Path_201" data-name="Path 201" d="M41.37,55.439l-.25-1.054a2.188,2.188,0,0,0,1.652-.678c.414-.441.4-.842.168-1.06-.688-.647-2.22,1.951-3.712.552a1.74,1.74,0,0,1,.12-2.546,2.738,2.738,0,0,1,1.915-.934l.216,1.032a2.127,2.127,0,0,0-1.45.677c-.315.336-.338.671-.1.894.624.585,2.21-1.952,3.689-.564a1.762,1.762,0,0,1-.128,2.685A2.859,2.859,0,0,1,41.37,55.439Z" transform="translate(-34.206 -35.815)" fill="#aad6b2"/>
          <path id="Path_202" data-name="Path 202" d="M46.539,51.447,43.3,47.081l2.9-2.159.608.818L44.78,47.25l.681.916,1.987-1.477.607.818-1.987,1.477.738.995,2.032-1.51.606.818Z" transform="translate(-33.823 -36.217)" fill="#aad6b2"/>
          <path id="Path_203" data-name="Path 203" d="M50.779,47.487l.135-1.075a2.191,2.191,0,0,0,1.786-.056c.544-.27.671-.65.53-.934-.419-.847-2.766,1.05-3.673-.78A1.741,1.741,0,0,1,50.564,42.3a2.75,2.75,0,0,1,2.123-.2l-.16,1.041a2.123,2.123,0,0,0-1.6.128c-.412.2-.552.508-.409.8.38.766,2.756-1.054,3.655.762a1.759,1.759,0,0,1-1.062,2.469A2.865,2.865,0,0,1,50.779,47.487Z" transform="translate(-33.313 -36.464)" fill="#aad6b2"/>
          <path id="Path_204" data-name="Path 204" d="M56.014,42.939a2.674,2.674,0,1,1,3.313,2.018A2.651,2.651,0,0,1,56.014,42.939Zm4.078-1.1a1.567,1.567,0,1,0-1.032,2.125A1.605,1.605,0,0,0,60.092,41.842Z" transform="translate(-32.769 -36.676)" fill="#aad6b2"/>
          <path id="Path_205" data-name="Path 205" d="M66.914,43.689l-1.125-1.863-.8.051.122,1.926-1.086.068-.345-5.422,2.386-.152a1.647,1.647,0,0,1,1.833,1.64,1.556,1.556,0,0,1-1.022,1.681l1.286,1.992ZM66.789,40a.71.71,0,0,0-.805-.676l-1.147.073.093,1.463,1.148-.072A.713.713,0,0,0,66.789,40Z" transform="translate(-32.117 -36.772)" fill="#aad6b2"/>
          <path id="Path_206" data-name="Path 206" d="M70.473,43.882l.472-5.412,1.084.093-.472,5.413Zm1.134-5.854-.679-.059,1.126-1.08.893.078Z" transform="translate(-31.549 -36.889)" fill="#aad6b2"/>
          <path id="Path_207" data-name="Path 207" d="M77.809,45.025l-.091-.97-2.125-.529-.535.815-1.2-.3,3.223-4.794,1.323.328.6,5.745Zm-.344-4.49-1.337,2.075,1.546.384Z" transform="translate(-31.266 -36.692)" fill="#aad6b2"/>
          <path id="Path_208" data-name="Path 208" d="M87.215,49.516l-.193-4.3-1.875,3.007-.923-.577L87.1,43.04l.949.592.2,4.148,1.8-2.895.924.575-2.873,4.61Z" transform="translate(-30.398 -36.374)" fill="#aad6b2"/>
          <path id="Path_209" data-name="Path 209" d="M91.479,49.979l2.244-2.359.8.761L92.3,50.717a1.2,1.2,0,1,0,1.739,1.654l2.222-2.336.805.766-2.243,2.361a2.309,2.309,0,0,1-3.345-3.183Z" transform="translate(-29.851 -35.991)" fill="#aad6b2"/>
          <path id="Path_210" data-name="Path 210" d="M95.573,57.589l3.6-2.552-.866-1.218.83-.588,2.361,3.323-.829.588-.862-1.212-3.6,2.552Z" transform="translate(-29.449 -35.521)" fill="#aad6b2"/>
          <path id="Path_211" data-name="Path 211" d="M99.442,64.207l1.33-1.722-.336-.723-1.751.812-.457-.987,4.926-2.283,1.007,2.168a1.647,1.647,0,0,1-.863,2.3,1.558,1.558,0,0,1-1.937-.345l-1.39,1.919Zm3.393-1.453a.707.707,0,0,0,.337-.993l-.483-1.043-1.33.616.483,1.043A.714.714,0,0,0,102.835,62.753Z" transform="translate(-29.227 -35.013)" fill="#aad6b2"/>
          <path id="Path_212" data-name="Path 212" d="M100.667,67.551l5.218-1.512.3,1.047L100.97,68.6Z" transform="translate(-29.022 -34.45)" fill="#aad6b2"/>
          <path id="Path_213" data-name="Path 213" d="M104.288,70.649A2.673,2.673,0,0,1,107.421,73a2.311,2.311,0,0,1-1.048,2.283l-.6-.866a1.384,1.384,0,0,0,.633-1.286,1.795,1.795,0,0,0-3.542.451,1.379,1.379,0,0,0,.936,1.087l-.359.989a2.328,2.328,0,0,1-1.6-1.946A2.68,2.68,0,0,1,104.288,70.649Z" transform="translate(-28.926 -34.066)" fill="#aad6b2"/>
          <path id="Path_214" data-name="Path 214" d="M102.169,77.95l5.427.152-.029,1.088-5.427-.152Z" transform="translate(-28.899 -33.453)" fill="#aad6b2"/>
          <path id="Path_215" data-name="Path 215" d="M104.724,82.067a2.674,2.674,0,1,1-3.269,2.089A2.647,2.647,0,0,1,104.724,82.067Zm-.807,4.144a1.566,1.566,0,1,0-1.455-1.859A1.606,1.606,0,0,0,103.916,86.211Z" transform="translate(-28.961 -33.113)" fill="#aad6b2"/>
          <path id="Path_216" data-name="Path 216" d="M99.028,92.142l4.217-.852-3.26-1.39.427-1,5,2.128-.44,1.03-4.069.84,3.139,1.338-.427,1-5-2.129Z" transform="translate(-29.194 -32.536)" fill="#aad6b2"/>
          <path id="Path_217" data-name="Path 217" d="M95.446,98.192l.94.256,1.243-1.8-.575-.787.7-1.016,3.355,4.7-.773,1.123-5.59-1.458Zm4.324,1.256L98.3,97.467l-.9,1.312Z" transform="translate(-29.518 -32.039)" fill="#aad6b2"/>
          <path id="Path_218" data-name="Path 218" d="M93.378,100.589l3.857,3.83-.773.778-3.133-3.112-1.523,1.531-.723-.717Z" transform="translate(-29.824 -31.558)" fill="#aad6b2"/>
        </g>
      </g>
    </g>
  </g>
</svg>
