<svg xmlns="http://www.w3.org/2000/svg" xmlns:xlink="http://www.w3.org/1999/xlink" width="440" height="440" viewBox="0 0 440 440">
  <defs>
    <clipPath id="clip-Artboard_1">
      <rect width="440" height="440"/>
    </clipPath>
  </defs>
  <g id="Artboard_1" data-name="Artboard – 1" clip-path="url(#clip-Artboard_1)">
    <g id="Group_391" data-name="Group 391" transform="translate(44.534 4.504)">
      <g id="Group_341" data-name="Group 341">
        <path id="Path_200" data-name="Path 200" d="M62.388,67.072l-4.626-1.084-5.752,9.019,2.939,3.737-3.241,5.08L34.555,61.468l3.579-5.614L65.629,62ZM41.094,61.7l7.517,9.415,4.182-6.566Z" transform="translate(-34.555 44.403)" fill="#fff"/>
        <path id="Path_201" data-name="Path 201" d="M51.6,77.625l-1.221-5.144a10.675,10.675,0,0,0,8.057-3.309c2.019-2.152,1.951-4.108.819-5.17-3.357-3.156-10.832,9.516-18.106,2.691-3.214-3.018-3.431-8.136.587-12.418a13.357,13.357,0,0,1,9.341-4.557l1.052,5.033a10.374,10.374,0,0,0-7.073,3.3c-1.538,1.639-1.649,3.272-.492,4.361,3.045,2.855,10.779-9.521,18-2.749,3.531,3.32,3.949,8.215-.624,13.1A13.945,13.945,0,0,1,51.6,77.625Z" transform="translate(-16.654 18.101)" fill="#fff"/>
        <path id="Path_202" data-name="Path 202" d="M59.1,76.752l-15.8-21.3L57.468,44.922l2.966,3.991-9.912,7.364,3.32,4.467,9.7-7.205L66.5,57.53l-9.7,7.205,3.6,4.853,9.912-7.364,2.955,3.991Z" transform="translate(2.93 -2.456)" fill="#fff"/>
        <path id="Path_203" data-name="Path 203" d="M56.155,68.894l.661-5.244a10.686,10.686,0,0,0,8.712-.275c2.654-1.316,3.272-3.172,2.585-4.557C66.067,54.684,54.622,63.94,50.2,55.011c-1.956-3.949-.354-8.818,4.911-11.424a13.416,13.416,0,0,1,10.356-1l-.782,5.08a10.359,10.359,0,0,0-7.792.624c-2.009.994-2.691,2.479-1.993,3.9,1.856,3.738,13.443-5.144,17.831,3.716,2.152,4.34.819,9.071-5.181,12.042C63.218,70.094,59.38,70.088,56.155,68.894Z" transform="translate(29.046 -15.12)" fill="#fff"/>
        <path id="Path_204" data-name="Path 204" d="M56.459,56.536c-2.072-7.708,1.75-14.659,9.034-16.621,7.253-1.951,14.051,2.141,16.124,9.854s-1.745,14.659-9,16.61C65.33,68.346,58.537,64.249,56.459,56.536Zm19.893-5.35c-1.3-4.795-5.117-7.634-9.553-6.439-4.478,1.205-6.36,5.582-5.07,10.372,1.279,4.758,5.112,7.634,9.59,6.434C75.755,60.353,77.632,55.944,76.352,51.186Z" transform="translate(56.935 -25.986)" fill="#fff"/>
        <path id="Path_205" data-name="Path 205" d="M79.434,64.615l-5.487-9.087-3.88.248.6,9.394-5.3.333L63.686,39.055l11.641-.74c5.191-.328,8.633,3.082,8.939,8,.3,4.641-2.342,7.353-4.985,8.2l6.275,9.716ZM78.821,46.62a3.464,3.464,0,0,0-3.928-3.3l-5.593.354.455,7.137,5.6-.349A3.48,3.48,0,0,0,78.821,46.62Z" transform="translate(90.313 -30.871)" fill="#fff"/>
        <path id="Path_206" data-name="Path 206" d="M70.473,71l2.3-26.4,5.286.455-2.3,26.406ZM76,42.445l-3.315-.285,5.493-5.271,4.356.381Z" transform="translate(119.405 -36.889)" fill="#fff"/>
        <path id="Path_207" data-name="Path 207" d="M93.124,67.426l-.444-4.731-10.367-2.58L79.7,64.09,73.86,62.636,89.582,39.249l6.455,1.6,2.929,28.023Zm-1.676-21.9L84.925,55.647l7.544,1.871Z" transform="translate(133.923 -26.773)" fill="#fff"/>
        <path id="Path_208" data-name="Path 208" d="M98.814,74.632l-.941-20.961-9.146,14.67-4.5-2.812L98.238,43.04l4.631,2.886,1,20.236,8.8-14.12,4.509,2.807L103.165,77.338Z" transform="translate(178.348 -10.523)" fill="#fff"/>
        <path id="Path_209" data-name="Path 209" d="M94.262,59.129,105.21,47.62l3.9,3.711-10.837,11.4c-2.548,2.675-2.839,5.91-.042,8.564s5.979,2.183,8.527-.5L117.6,59.4l3.928,3.737L110.581,74.655c-4.52,4.747-10.3,5.5-15.8.264S89.742,63.876,94.262,59.129Z" transform="translate(206.372 9.109)" fill="#fff"/>
        <path id="Path_210" data-name="Path 210" d="M95.573,74.492l17.556-12.449L108.905,56.1l4.049-2.871,11.519,16.208-4.044,2.871-4.2-5.91L98.666,78.848Z" transform="translate(226.994 33.155)" fill="#fff"/>
        <path id="Path_211" data-name="Path 211" d="M104.153,83.224l6.486-8.4L109,71.3l-8.543,3.96-2.231-4.816L122.259,59.3l4.911,10.578c2.189,4.715.259,9.145-4.208,11.223-4.213,1.951-7.7.476-9.447-1.681l-6.783,9.362ZM120.7,76.135a3.451,3.451,0,0,0,1.644-4.842l-2.358-5.085-6.486,3,2.358,5.086A3.481,3.481,0,0,0,120.7,76.135Z" transform="translate(238.37 59.187)" fill="#fff"/>
        <path id="Path_212" data-name="Path 212" d="M100.667,73.414l25.454-7.375,1.48,5.107-25.454,7.369Z" transform="translate(248.829 88.06)" fill="#fff"/>
        <path id="Path_213" data-name="Path 213" d="M113.86,70.757c8.12-1.041,14.331,4.012,15.283,11.472a11.276,11.276,0,0,1-5.112,11.138l-2.939-4.224a6.752,6.752,0,0,0,3.087-6.275c-.582-4.53-4.663-7.327-9.632-6.693s-8.215,4.367-7.644,8.892a6.726,6.726,0,0,0,4.568,5.3l-1.75,4.826c-3.5-1.327-7.094-4.071-7.782-9.494C100.988,78.248,105.772,71.788,113.86,70.757Z" transform="translate(253.769 107.702)" fill="#fff"/>
        <path id="Path_214" data-name="Path 214" d="M102.283,77.95l26.474.74L128.615,84l-26.474-.74Z" transform="translate(255.143 139.116)" fill="#fff"/>
        <path id="Path_215" data-name="Path 215" d="M117.612,82.308c7.845,1.522,12.413,8,10.964,15.415-1.438,7.375-8.1,11.678-15.944,10.155s-12.407-8-10.969-15.378C103.106,85.094,109.773,80.79,117.612,82.308Zm-3.938,20.215c4.879.946,9.108-1.242,9.986-5.752.888-4.546-2.215-8.162-7.089-9.1-4.837-.936-9.109,1.237-10,5.789C105.7,97.966,108.837,101.587,113.674,102.523Z" transform="translate(251.972 156.496)" fill="#fff"/>
        <path id="Path_216" data-name="Path 216" d="M100.625,104.713l20.569-4.155-15.9-6.782,2.083-4.874,24.386,10.383-2.146,5.022-19.851,4.1,15.315,6.529L123,119.811,98.616,109.423Z" transform="translate(240.038 186.056)" fill="#fff"/>
        <path id="Path_217" data-name="Path 217" d="M98.161,111.187l4.583,1.248,6.063-8.8L106,99.8l3.415-4.959,16.367,22.932-3.769,5.477-27.267-7.11Zm21.093,6.127-7.179-9.664-4.414,6.4Z" transform="translate(223.449 211.518)" fill="#fff"/>
        <path id="Path_218" data-name="Path 218" d="M102.275,100.589l18.814,18.682-3.769,3.8-15.283-15.183-7.427,7.47-3.526-3.5Z" transform="translate(207.752 236.156)" fill="#fff"/>
      </g>
    </g>
  </g>
</svg>
