<svg xmlns="http://www.w3.org/2000/svg" width="71.619" height="91.356" viewBox="0 0 71.619 91.356">
  <g id="Path_262" data-name="Path 262" transform="translate(28.443 -79.069)" fill="#fff">
    <path d="M 7.369387149810791 169.9246826171875 C 2.819516897201538 169.9246826171875 -1.640542030334473 169.0474090576172 -5.886895179748535 167.3171997070312 C -10.2755651473999 165.5290374755859 -14.20736598968506 162.9172821044922 -17.57310676574707 159.5545043945312 C -24.26125907897949 152.9798889160156 -27.94300079345703 144.1229400634766 -27.94300079345703 134.6123199462891 C -27.94300079345703 125.2191467285156 -24.26017761230469 116.3632888793945 -17.57295417785645 109.6760864257812 C -17.20921325683594 109.3123397827148 -16.74747085571289 109.1120147705078 -16.27278900146484 109.1120147705078 C -15.34618949890137 109.1120147705078 -14.29596519470215 109.1120147705078 -13.37845993041992 109.2304458618164 L -12.98950672149658 109.2806549072266 L -12.84809494018555 108.9148635864258 C -8.64518928527832 98.04424285888672 -2.283389091491699 88.36026763916016 6.060622692108154 80.13195037841797 C 6.426799297332764 79.76812744140625 6.890034675598145 79.56848907470703 7.366328716278076 79.56848907470703 C 7.842622756958008 79.56848907470703 8.30585765838623 79.76812744140625 8.67070484161377 80.13063049316406 C 16.81704711914062 88.28302764892578 23.18055152893066 97.96996307373047 27.58318710327148 108.9210662841797 L 27.72542190551758 109.2748413085938 L 28.10422325134277 109.2312927246094 C 29.14149284362793 109.1120147705078 30.04689407348633 109.1120147705078 31.00544548034668 109.1120147705078 C 31.48011589050293 109.1120147705078 31.94186973571777 109.3123474121094 32.30562210083008 109.6760864257812 C 38.99282455444336 116.3633041381836 42.67563629150391 125.2191619873047 42.67563629150391 134.6123199462891 C 42.67563629150391 144.0094146728516 38.99282455444336 152.8674468994141 32.30562210083008 159.5546569824219 C 25.61255264282227 166.2418212890625 16.75664710998535 169.9246826171875 7.369387149810791 169.9246826171875 Z M 26.69836807250977 112.9593200683594 C 23.41590118408203 113.2597579956055 20.21614265441895 113.899169921875 17.18802261352539 114.8598175048828 C 14.13139915466309 115.8294982910156 11.13891696929932 117.1615447998047 8.293704986572266 118.8189468383789 C 1.5562344789505 122.7448425292969 -4.104106903076172 128.3695678710938 -8.075448036193848 135.0850982666016 C -12.04215335845947 141.7928009033203 -14.23205947875977 149.4321594238281 -14.4084358215332 157.1773376464844 L -14.41350650787354 157.4000244140625 L -14.25134181976318 157.552734375 C -8.379483222961426 163.0819702148438 -0.6928596496582031 166.1270599365234 7.392575740814209 166.1270599365234 C 11.48439884185791 166.1270599365234 15.47666931152344 165.3544006347656 19.25849342346191 163.8305511474609 C 23.17051696777344 162.2542419433594 26.68472862243652 159.9392547607422 29.70351600646973 156.9498901367188 C 32.6864128112793 153.9670257568359 34.99809265136719 150.5082244873047 36.57610321044922 146.6678161621094 C 38.14945983886719 142.8387298583984 38.94721221923828 138.7435150146484 38.94721221923828 134.4958801269531 C 38.94721221923828 130.4380035400391 38.2100830078125 126.5141677856445 36.75628280639648 122.8333740234375 C 35.30537414550781 119.1598739624023 33.1736946105957 115.8116455078125 30.42045783996582 112.8816757202148 L 30.24956321716309 112.6998062133789 L 30.00149345397949 112.72705078125 C 29.4852352142334 112.7837600708008 28.92150497436523 112.8129806518555 28.37634086608887 112.8412399291992 C 27.81935119628906 112.8701248168945 27.24344635009766 112.8999786376953 26.69836807250977 112.9593200683594 Z M -15.53984832763672 112.8404541015625 L -15.68797779083252 112.9982528686523 C -18.43207168579102 115.9215927124023 -20.56861305236816 119.2699508666992 -22.03824806213379 122.950309753418 C -23.50156593322754 126.6148529052734 -24.27497673034668 130.5359649658203 -24.33700180053711 134.6047058105469 L -24.33705902099609 134.6085052490234 L -24.33705902099609 134.6123199462891 C -24.33705902099609 137.8412017822266 -23.862060546875 141.0176849365234 -22.92523574829102 144.0535278320312 C -21.98637771606445 147.0959930419922 -20.60115432739258 149.9403991699219 -18.80804824829102 152.5077514648438 L -18.06547164916992 153.5709533691406 L -17.90211868286133 152.2844390869141 C -16.14018821716309 138.4085540771484 -8.593295097351074 125.9153137207031 2.803481578826904 118.0080871582031 L 3.504140377044678 117.5219573974609 L 2.737752199172974 117.1479339599609 C -1.777088046073914 114.9445419311523 -6.76284646987915 113.5765609741211 -12.0805606842041 113.0820083618164 C -13.2307653427124 112.9497833251953 -14.26890659332275 112.8404541015625 -15.32342433929443 112.8404541015625 L -15.53984832763672 112.8404541015625 Z M 7.369552135467529 84.00433349609375 L 7.003940105438232 84.3958740234375 C 0.1771756261587143 91.70671081542969 -5.18425989151001 99.98958587646484 -8.931412696838379 109.0144195556641 L -9.17207145690918 109.5940399169922 L -8.553330421447754 109.699089050293 C -2.934036254882812 110.6531600952148 2.342493295669556 112.4628067016602 7.129693031311035 115.077751159668 L 7.369540214538574 115.2087631225586 L 7.609304904937744 115.0776290893555 C 12.68523406982422 112.3015441894531 17.95623397827148 110.4924926757812 23.27590560913086 109.7006988525391 L 23.90984535217285 109.6063461303711 L 23.66407012939453 109.0144195556641 C 19.91861152648926 99.99369049072266 14.55929279327393 91.71087646484375 7.734987258911133 84.39604187011719 L 7.369552135467529 84.00433349609375 Z" stroke="none"/>
    <path d="M 7.366329193115234 80.0684814453125 C 7.018004417419434 80.0684814453125 6.68882942199707 80.21261596679688 6.411691665649414 80.48796081542969 C -1.881532669067383 88.66618347167969 -8.204557418823242 98.29104614257812 -12.38173294067383 109.0951690673828 L -12.66456985473633 109.8267211914062 L -13.44245910644531 109.7263336181641 C -14.32809638977051 109.6120147705078 -15.36124610900879 109.6120147705078 -16.27278327941895 109.6120147705078 C -16.61392021179199 109.6120147705078 -16.95009613037109 109.7603302001953 -17.21940803527832 110.0296478271484 C -23.81219673156738 116.6224212646484 -27.44300651550293 125.3527145385742 -27.44300651550293 134.6123046875 C -27.44300651550293 143.9877624511719 -23.81435966491699 152.7180786132812 -17.22548294067383 159.195068359375 L -17.22258377075195 159.1979064941406 L -17.21970748901367 159.2007904052734 C -13.90130805969238 162.5162658691406 -10.02492141723633 165.0912475585938 -5.698232650756836 166.8541564941406 C -1.51207160949707 168.5598297119141 2.884504318237305 169.4246826171875 7.36937952041626 169.4246826171875 C 16.62316703796387 169.4246826171875 25.35358047485352 165.7937622070312 31.95205497741699 159.2010803222656 C 38.54483032226562 152.6083374023438 42.17562866210938 143.8758544921875 42.17562866210938 134.6123046875 C 42.17562866210938 125.3527145385742 38.54483032226562 116.6224212646484 31.95205497741699 110.0296325683594 C 31.68275451660156 109.7603302001953 31.34656715393066 109.6120147705078 31.00544166564941 109.6120147705078 C 30.06161689758301 109.6120147705078 29.17014312744141 109.6120147705078 28.16132926940918 109.7279968261719 L 27.40372848510742 109.8151092529297 L 27.11927795410156 109.1075592041016 C 22.74189186096191 98.21928405761719 16.41546630859375 88.58851623535156 8.318291664123535 80.48532104492188 C 8.043828964233398 80.21261596679688 7.714641571044922 80.0684814453125 7.366329193115234 80.0684814453125 M 7.36967945098877 115.7785797119141 L 6.889991760253906 115.5165557861328 C 2.151578903198242 112.9282531738281 -3.072471618652344 111.1368103027344 -8.637033462524414 110.1920318603516 L -9.874532699584961 109.98193359375 L -9.393196105957031 108.8226776123047 C -5.623044967651367 99.74246215820312 -0.2291955947875977 91.40928649902344 6.638491630554199 84.05461120605469 L 7.369704246520996 83.27154541015625 L 8.100579261779785 84.05494689941406 C 14.96571636199951 91.41355895996094 20.35739135742188 99.74661254882812 24.1258430480957 108.8226776123047 L 24.61739158630371 110.0065307617188 L 23.34951782226562 110.1952362060547 C 18.08831596374512 110.9783325195312 12.87326717376709 112.7686004638672 7.849216938018799 115.5163116455078 L 7.36967945098877 115.7785797119141 M 7.392579078674316 166.6270446777344 C -0.8207836151123047 166.6270446777344 -8.629133224487305 163.5336761474609 -14.59410858154297 157.916748046875 L -14.9184455871582 157.611328125 L -14.90829658508301 157.1659545898438 C -14.72998237609863 149.3353118896484 -12.51604652404785 141.6118621826172 -8.505832672119141 134.8305969238281 C -4.491157531738281 128.0417785644531 1.230954170227051 122.3556747436523 8.04202938079834 118.3869018554688 C 10.91895484924316 116.7110290527344 13.94524192810059 115.3639831542969 17.03682899475098 114.3832092285156 C 20.09828567504883 113.4120025634766 23.33233642578125 112.7655181884766 26.64953231811523 112.4616851806641 C 27.20706558227539 112.4011840820312 27.78826522827148 112.3710632324219 28.35044097900391 112.3419189453125 C 28.91330337524414 112.312744140625 29.44495391845703 112.2851715087891 29.94689178466797 112.2300415039062 L 30.44302940368652 112.1755523681641 L 30.78483009338379 112.5392761230469 C 33.58154296875 115.5155334472656 35.74709320068359 118.9171447753906 37.22131729125977 122.6496887207031 C 38.69830322265625 126.3892288208008 39.44720458984375 130.3748626708984 39.44720458984375 134.4958801269531 C 39.44720458984375 138.8090209960938 38.6368293762207 142.9681701660156 37.03858184814453 146.8578491210938 C 35.4352912902832 150.7597351074219 33.08696746826172 154.2735595703125 30.05534172058105 157.30517578125 C 26.98906707763672 160.3415374755859 23.41935348510742 162.6930236816406 19.44536590576172 164.2943115234375 C 15.60386657714844 165.8421936035156 11.54872894287109 166.6270446777344 7.392579078674316 166.6270446777344 M -12.02902221679688 112.5846405029297 C -6.65283203125 113.0851898193359 -1.610851287841797 114.4692993164062 2.95704174041748 116.6985931396484 L 4.489816665649414 117.4466400146484 L 3.088503837585449 118.4188842773438 C -8.192020416259766 126.2454528808594 -15.66200828552246 138.6119384765625 -17.40609550476074 152.347412109375 L -17.73282051086426 154.9204711914062 L -19.21796989440918 152.7940521240234 C -21.04079627990723 150.1841430664062 -22.4488468170166 147.2930145263672 -23.40300941467285 144.2009582519531 C -24.35457038879395 141.1173095703125 -24.83705711364746 137.8912048339844 -24.83705711364746 134.6123046875 L -24.83705711364746 134.6046905517578 L -24.83694648742676 134.5970764160156 C -24.77398490905762 130.4671783447266 -23.98859596252441 126.4862518310547 -22.50259590148926 122.764892578125 C -21.00968360900879 119.0262451171875 -18.8395824432373 115.6251525878906 -16.05254554748535 112.6560516357422 L -15.75629615783691 112.3404541015625 L -15.32343292236328 112.3404541015625 C -14.24416542053223 112.3404541015625 -13.19254875183105 112.4509124755859 -12.02902221679688 112.5846405029297 M 7.366324424743652 79.0684814453125 C 7.957376003265381 79.0684814453125 8.548429489135742 79.30430603027344 9.023117065429688 79.77593994140625 C 17.2917537689209 88.05072021484375 23.67390441894531 97.856689453125 28.04710388183594 108.7345581054688 C 29.11284255981445 108.6120147705078 30.05607986450195 108.6120147705078 31.00544166564941 108.6120147705078 C 31.59341621398926 108.6120147705078 32.18754196166992 108.8509063720703 32.65916442871094 109.3225402832031 C 39.39656829833984 116.0599365234375 43.17562866210938 125.0390548706055 43.17562866210938 134.6123046875 C 43.17562866210938 144.1855010986328 39.39656829833984 153.1708068847656 32.65916442871094 159.908203125 C 25.68288040161133 166.8783416748047 16.5873908996582 170.4246826171875 7.36937952041626 170.4246826171875 C -1.732246398925781 170.4246826171875 -10.95023345947266 166.8783416748047 -17.9265079498291 159.908203125 C -24.78028297424316 153.1708068847656 -28.44300651550293 144.1855010986328 -28.44300651550293 134.6123046875 C -28.44300651550293 125.0390548706055 -24.6639347076416 116.0599365234375 -17.9265079498291 109.3225402832031 C -17.45489692687988 108.8509063720703 -16.86077117919922 108.6120147705078 -16.27278327941895 108.6120147705078 C -15.32343292236328 108.6120147705078 -14.26382064819336 108.6120147705078 -13.31444549560547 108.7345581054688 C -9.063758850097656 97.74029541015625 -2.681594848632812 88.05072021484375 5.709541320800781 79.77593994140625 C 6.184223175048828 79.30430603027344 6.775272846221924 79.0684814453125 7.366324424743652 79.0684814453125 Z M 7.36937952041626 114.6389465332031 C 12.33057975769043 111.9256134033203 17.64700508117676 110.0330047607422 23.20229148864746 109.2061462402344 C 19.4232177734375 100.1044921875 14.10066699981689 91.95223999023438 7.36937952041626 84.73712158203125 C 0.6319913864135742 91.95223999023438 -4.690582275390625 100.1044921875 -8.469646453857422 109.2061462402344 C -2.914344787597656 110.1493530273438 2.402079582214355 111.9256134033203 7.36937952041626 114.6389465332031 Z M 7.392580032348633 165.6270446777344 C 15.33296394348145 165.6270446777344 23.27660369873047 162.6104736328125 29.35170364379883 156.5946044921875 C 35.25613021850586 150.6902008056641 38.44720458984375 142.8870544433594 38.44720458984375 134.4958801269531 C 38.44720458984375 126.4600296020508 35.49499130249023 119.0121154785156 30.05607986450195 113.2240600585938 C 28.9964542388916 113.3404541015625 27.81435394287109 113.3404541015625 26.74861717224121 113.4568023681641 C 20.25008010864258 114.0509338378906 14.22316646575928 115.9435424804688 8.545379638671875 119.2509918212891 C -5.045820236206055 127.1705017089844 -13.55331993103027 141.5885620117188 -13.9085578918457 157.188720703125 C -7.92890739440918 162.8194580078125 -0.2697286605834961 165.6270446777344 7.392580032348633 165.6270446777344 Z M -18.39813423156738 152.2214508056641 C -16.62803268432617 138.2811126708984 -9.063758850097656 125.6331634521484 2.518454551696777 117.5972747802734 C -2.087471008300781 115.3494262695312 -7.054782867431641 114.0509338378906 -12.13234519958496 113.579345703125 C -13.19808387756348 113.4568023681641 -14.26382064819336 113.3404541015625 -15.32343292236328 113.3404541015625 C -20.7623348236084 119.1346435546875 -23.71455955505371 126.5763931274414 -23.83705711364746 134.6123046875 C -23.83705711364746 140.9944458007812 -21.94445991516113 147.1438598632812 -18.39813423156738 152.2214508056641 Z" stroke="none" fill="#ebd08e"/>
  </g>
</svg>
