<svg xmlns="http://www.w3.org/2000/svg" width="91.369" height="91.356" viewBox="0 0 91.369 91.356">
  <g id="Path_263" data-name="Path 263" transform="translate(13.65 -72.942)" fill="#fff">
    <path d="M 29.83856773376465 163.7984619140625 C 25.30055618286133 163.7984619140625 20.81429672241211 163.0850982666016 16.50441551208496 161.6782073974609 C 12.21272087097168 160.2772369384766 8.185697555541992 158.2182006835938 4.535226345062256 155.5582733154297 L 3.738061666488647 154.9774169921875 L 3.740779399871826 155.9637603759766 L 3.753955841064453 160.7361755371094 C 3.753955841064453 161.6213989257812 3.031179428100586 162.3426971435547 2.142767667770386 162.3426971435547 C 1.254355907440186 162.3426971435547 0.5315794348716736 161.6213989257812 0.5315794348716736 160.7348022460938 L 0.5019323825836182 151.7712860107422 L 0.5018500089645386 151.7463989257812 L 0.4992970824241638 151.7216644287109 C 0.4520735442638397 151.2637176513672 0.6027559041976929 150.815673828125 0.9235911965370178 150.4600524902344 C 1.248391151428223 150.1000366210938 1.695355892181396 149.8935394287109 2.149861812591553 149.8935394287109 C 2.209650039672852 149.8935394287109 2.269979476928711 149.897216796875 2.329179525375366 149.9044494628906 L 2.359744071960449 149.9081726074219 L 2.390532255172729 149.9081268310547 L 11.31945037841797 149.8949584960938 C 12.20712089538574 149.8949584960938 12.92989730834961 150.6177368164062 12.92989730834961 151.5061492919922 C 12.92989730834961 152.3945465087891 12.20712089538574 153.1173248291016 11.3187084197998 153.1173248291016 L 8.261720657348633 153.1206512451172 L 6.599249839782715 153.1224670410156 L 7.986908912658691 154.0380096435547 C 14.46002674102783 158.3087768554688 22.0139331817627 160.5661773681641 29.83199119567871 160.5661773681641 C 39.35485076904297 160.5661773681641 48.71001434326172 156.8367919921875 56.17414474487305 150.0650024414062 L 56.18314361572266 150.0568389892578 L 56.18935394287109 150.0506286621094 C 56.48758316040039 149.7833099365234 56.87070083618164 149.6361999511719 57.26940155029297 149.6361999511719 C 57.72209548950195 149.6361999511719 58.15701293945312 149.8283538818359 58.46265029907227 150.1633911132812 C 59.0608024597168 150.8216247558594 59.01358032226562 151.8451538085938 58.35675430297852 152.4443359375 C 54.41676712036133 156.0190887451172 49.9679069519043 158.8227081298828 45.13476943969727 160.7763824462891 C 40.17393112182617 162.7816925048828 35.02754592895508 163.7984619140625 29.83856773376465 163.7984619140625 Z M -7.43665599822998 140.5778198242188 C -8.026138305664062 140.577880859375 -8.506961822509766 140.2579345703125 -8.790550231933594 139.6769409179688 C -10.22130298614502 136.7555541992188 -11.31770324707031 133.6665344238281 -12.04957389831543 130.4950866699219 C -12.77976131439209 127.3309020996094 -13.14999675750732 124.0723419189453 -13.14999675750732 120.8098831176758 C -13.14999675750732 116.1432342529297 -12.39938545227051 111.5434341430664 -10.9190092086792 107.1382446289062 C -9.478679656982422 102.8522109985352 -7.37717342376709 98.83248138427734 -4.672891139984131 95.19071960449219 C -1.979279398918152 91.56333160400391 1.247379422187805 88.39794158935547 4.91743803024292 85.782470703125 C 8.662485122680664 83.11356353759766 12.78812026977539 81.07699584960938 17.17976760864258 79.72936248779297 L 18.18730926513672 79.42018890380859 L 17.31052017211914 78.83539581298828 L 13.65134429931641 76.39483642578125 L 13.53229427337646 76.3154296875 C 13.2367115020752 76.08098602294922 13.03469085693359 75.75290679931641 12.95787334442139 75.37796020507812 C 12.87120342254639 74.95497131347656 12.95420265197754 74.52424621582031 13.19157981872559 74.16513061523438 C 13.49067401885986 73.71263122558594 13.99640274047852 73.4425048828125 14.54440307617188 73.4425048828125 C 14.86062622070312 73.4425048828125 15.16721439361572 73.53421020507812 15.43102645874023 73.70770263671875 L 22.83249664306641 78.63984680175781 L 22.86274337768555 78.65999603271484 L 22.89558029174805 78.67555999755859 C 23.33876800537109 78.88566589355469 23.65349769592285 79.30342102050781 23.75906181335449 79.82169342041016 C 23.86702728271484 80.35173034667969 23.73570823669434 80.88858795166016 23.40780258178711 81.25778961181641 L 23.38467407226562 81.28383636474609 L 23.3653678894043 81.31284332275391 L 18.44146156311035 88.71355438232422 C 18.14189720153809 89.16672515869141 17.63766098022461 89.43655395507812 17.09182739257812 89.43656158447266 C 16.77496719360352 89.43657684326172 16.46709632873535 89.34409332275391 16.20149803161621 89.16912841796875 C 15.46101474761963 88.67964935302734 15.25721454620361 87.67516326904297 15.74785041809082 86.930419921875 L 17.79199028015137 83.85596466064453 L 18.59721565246582 82.64488220214844 L 17.21750831604004 83.10478973388672 C 13.27161502838135 84.42008972167969 9.572285652160645 86.34358978271484 6.222285270690918 88.82182312011719 C 2.935414791107178 91.25336456298828 0.04977943375706673 94.16943359375 -2.354467630386353 97.48905944824219 C -4.769785404205322 100.8239517211914 -6.645455837249756 104.4923248291016 -7.929373741149902 108.3922576904297 C -9.248749732971191 112.3999176025391 -9.91773796081543 116.5800247192383 -9.91773796081543 120.8164596557617 C -9.91773796081543 123.8461990356445 -9.579243659973145 126.859375 -8.911679267883301 129.7722930908203 C -8.238585472106934 132.709228515625 -7.225691318511963 135.5667724609375 -5.901103019714355 138.2655487060547 C -5.573291301727295 138.9353332519531 -5.734279155731201 139.4444732666016 -5.927091121673584 139.7535552978516 C -6.234620571136475 140.2465209960938 -6.841267585754395 140.5777587890625 -7.43665599822998 140.5778198242188 Z M 66.86720275878906 140.3983306884766 C 66.08001708984375 140.3983612060547 65.35153198242188 139.8152770996094 65.20874786376953 139.0708923339844 L 65.20352172851562 139.0436706542969 L 65.19533538818359 139.0171966552734 L 62.54399108886719 130.4538269042969 C 62.4175910949707 130.0442504882812 62.4598274230957 129.6081848144531 62.6630744934082 129.2264099121094 C 62.86549758911133 128.8461608886719 63.20199203491211 128.56884765625 63.61058044433594 128.445556640625 C 63.76828384399414 128.3964385986328 63.92691040039062 128.3721923828125 64.08631896972656 128.3721923828125 C 64.78827667236328 128.3721923828125 65.42147064208984 128.8398742675781 65.62612915039062 129.5094909667969 L 66.63419342041016 132.7906036376953 L 67.08907318115234 134.2711791992188 L 67.58574676513672 132.8040924072266 C 68.91016387939453 128.8919219970703 69.58171081542969 124.8587036132812 69.58171081542969 120.8164596557617 C 69.58171081542969 116.1551666259766 68.77658843994141 111.579704284668 67.18870544433594 107.2171783447266 C 65.64303588867188 102.9706115722656 63.40105056762695 99.04354858398438 60.52502822875977 95.54505920410156 C 57.64696884155273 92.04410552978516 54.22777938842773 89.08654022216797 50.3624267578125 86.75450134277344 C 46.38663864135742 84.35584259033203 42.04996871948242 82.68907928466797 37.47289657592773 81.80050659179688 C 36.59987258911133 81.63492584228516 36.0250129699707 80.7869873046875 36.18930816650391 79.90990447998047 C 36.33314514160156 79.15377807617188 37.00023651123047 78.60397338867188 37.77524948120117 78.60397338867188 C 37.87612152099609 78.60397338867188 37.97795486450195 78.61362457275391 38.07791900634766 78.63263702392578 C 58.21029663085938 82.54074096679688 72.8238525390625 100.2817535400391 72.8238525390625 120.8164596557617 C 72.8238525390625 125.6785278320312 71.92385101318359 130.5235900878906 70.14884948730469 135.217041015625 L 69.78598785400391 136.176513671875 L 70.76531219482422 135.8712615966797 L 75.05666351318359 134.5336456298828 L 75.06229400634766 134.5336456298828 L 75.1341552734375 134.5115356445312 C 75.28795623779297 134.4642028808594 75.44681549072266 134.4402160644531 75.60630798339844 134.4402160644531 C 76.31107330322266 134.4402160644531 76.9444580078125 134.9080352783203 77.14659118652344 135.5778656005859 C 77.2738037109375 135.9913177490234 77.23187255859375 136.4276275634766 77.02931213378906 136.8090362548828 C 76.82706451416016 137.1898193359375 76.48983001708984 137.4683685302734 76.07974243164062 137.5933380126953 L 67.57978820800781 140.2322387695312 L 67.54872894287109 140.2418975830078 L 67.51918029785156 140.2554626464844 C 67.31302642822266 140.3502502441406 67.09367370605469 140.3983154296875 66.86720275878906 140.3983306884766 Z" stroke="none"/>
    <path d="M 29.83857154846191 163.2984619140625 C 34.96303558349609 163.2984619140625 40.04637145996094 162.2939605712891 44.94738388061523 160.3128356933594 C 49.7257194519043 158.3813018798828 54.12458419799805 155.6090545654297 58.01978302001953 152.0749359130859 C 58.47332000732422 151.6612091064453 58.50569534301758 150.9542236328125 58.09324645996094 150.5003509521484 C 57.87903213500977 150.2655181884766 57.58644485473633 150.1361846923828 57.2694091796875 150.1361846923828 C 56.9981575012207 150.1361846923828 56.73711776733398 150.2350463867188 56.53207778930664 150.4149780273438 L 56.52774810791016 150.4192962646484 L 56.51009750366211 150.4353179931641 C 48.95378494262695 157.2907257080078 39.47932052612305 161.0661773681641 29.83198356628418 161.0661773681641 C 21.91574668884277 161.0661773681641 14.26663398742676 158.7801971435547 7.711546421051025 154.4553527832031 L 4.936221122741699 152.624267578125 L 8.261171340942383 152.6206512451172 L 11.3187084197998 152.6173248291016 C 11.93142127990723 152.6173248291016 12.42989635467529 152.1188507080078 12.42989635467529 151.5061492919922 C 12.42989635467529 150.8934478759766 11.93142127990723 150.3949737548828 11.32018375396729 150.3949737548828 L 2.391258955001831 150.4081268310547 L 2.329683780670166 150.4082183837891 L 2.268558740615845 150.4007568359375 C 2.229371309280396 150.3959655761719 2.189433813095093 150.3935394287109 2.149846315383911 150.3935394287109 C 1.841246366500854 150.3935394287109 1.521608829498291 150.5436096191406 1.294833898544312 150.7949829101562 C 1.16464638710022 150.9392852783203 0.9527838230133057 151.2449035644531 0.9966588616371155 151.6703643798828 L 1.001758813858032 151.7198638916016 L 1.001933813095093 151.7696228027344 L 1.031571388244629 160.7348022460938 C 1.031571388244629 161.345703125 1.530058860778809 161.8426971435547 2.142771244049072 161.8426971435547 C 2.755483865737915 161.8426971435547 3.253958940505981 161.345703125 3.253958940505981 160.7375640869141 L 3.240783929824829 155.9651489257812 L 3.23534631729126 153.9924621582031 L 4.829683780670166 155.1541748046875 C 8.437684059143066 157.7831573486328 12.41783428192139 159.8182220458984 16.65957069396973 161.2028961181641 C 20.91928291320801 162.5934143066406 25.35333442687988 163.2984619140625 29.83857154846191 163.2984619140625 M -7.436703681945801 140.0778198242188 C -7.013928890228271 140.0777740478516 -6.567603588104248 139.8356018066406 -6.351315975189209 139.4889068603516 C -6.168266296386719 139.1954803466797 -6.167966365814209 138.857666015625 -6.349953651428223 138.48583984375 C -7.69149112701416 135.7525329589844 -8.717353820800781 132.8584442138672 -9.399028778076172 129.8839721679688 C -10.07499122619629 126.9344940185547 -10.41772842407227 123.8837280273438 -10.41772842407227 120.8164520263672 C -10.41772842407227 116.5268020629883 -9.740316390991211 112.2941055297852 -8.404291152954102 108.2359008789062 C -7.104228496551514 104.2869262695312 -5.205016136169434 100.5724945068359 -2.759416103363037 97.19576263427734 C -0.3250536620616913 93.83456420898438 2.596771240234375 90.88192749023438 5.924908638000488 88.41986846923828 C 9.317296028137207 85.91026306152344 13.06348419189453 83.96242523193359 17.05939674377441 82.63043975830078 L 19.81879615783691 81.71063995361328 L 18.20835876464844 84.13278961181641 L 16.16538429260254 87.20549011230469 C 15.82619667053223 87.72036743164062 15.966383934021 88.41432952880859 16.47658348083496 88.75159454345703 C 16.6602840423584 88.87261962890625 16.87302207946777 88.93657684326172 17.0918083190918 88.93656921386719 C 17.46930885314941 88.93655395507812 17.8176097869873 88.75057983398438 18.02517127990723 88.43659210205078 L 22.9490966796875 81.03588104248047 L 22.98769569396973 80.97785186767578 L 23.03397178649902 80.92575073242188 C 23.2579345703125 80.67357635498047 23.34584617614746 80.29815673828125 23.26912117004395 79.92149353027344 C 23.19525909423828 79.55887603759766 22.98104667663574 79.26943206787109 22.68138313293457 79.12736511230469 L 22.61570930480957 79.09622955322266 L 22.55523300170898 79.05593109130859 L 15.15407276153564 74.12400054931641 C 14.97256374359131 74.0052490234375 14.76180362701416 73.9425048828125 14.54439640045166 73.9425048828125 C 14.16474628448486 73.9425048828125 13.81497097015381 74.12879180908203 13.60869598388672 74.44085693359375 C 13.44504642486572 74.68843078613281 13.38787174224854 74.98558807373047 13.44769668579102 75.27760314941406 C 13.49941253662109 75.53000640869141 13.6332540512085 75.75154876708984 13.82892608642578 75.91226196289062 L 13.92878341674805 75.97886657714844 L 17.58795928955078 78.41942596435547 L 19.34153366088867 79.58901977539062 L 17.32644653320312 80.20736694335938 C 12.98622131347656 81.53923034667969 8.908859252929688 83.55195617675781 5.207621574401855 86.18964385986328 C 1.580171346664429 88.77475738525391 -1.609053611755371 91.9034423828125 -4.271453857421875 95.48880004882812 C -6.944378852844238 99.08834075927734 -9.021478652954102 103.0613632202148 -10.44505405426025 107.2975158691406 C -11.90814113616943 111.6512756347656 -12.64999103546143 116.1974945068359 -12.64999103546143 120.8098754882812 C -12.64999103546143 124.034553527832 -12.28406620025635 127.2552947998047 -11.5623664855957 130.3826446533203 C -10.83906650543213 133.5169982910156 -9.75550365447998 136.5698394775391 -8.341216087341309 139.4576263427734 C -8.140328407287598 139.8691864013672 -7.83600378036499 140.0778503417969 -7.436716079711914 140.0778198242188 L -7.436703681945801 140.0778198242188 M 66.86719512939453 139.8983306884766 C 67.02104949951172 139.8983154296875 67.17013549804688 139.8656463623047 67.31031036376953 139.8011932373047 L 67.36940765380859 139.7740173339844 L 67.43153381347656 139.7547302246094 L 75.92900848388672 137.1165924072266 L 75.93148040771484 137.1158294677734 L 75.93396759033203 137.1150665283203 C 76.21607208251953 137.0290985107422 76.44823455810547 136.8371124267578 76.58772277832031 136.5744934082031 C 76.72752380371094 136.3112640380859 76.75656127929688 136.0104827880859 76.66949462890625 135.7275238037109 L 76.66869354248047 135.7249298095703 L 76.66790771484375 135.7223358154297 C 76.52894592285156 135.2618255615234 76.09239959716797 134.9402160644531 75.60630798339844 134.9402160644531 C 75.49671173095703 134.9402160644531 75.38732147216797 134.9567718505859 75.28119659423828 134.9894256591797 L 75.13748168945312 135.0336456298828 L 75.13278961181641 135.0336456298828 L 70.91410827636719 136.3486175537109 L 68.95545959472656 136.9591217041016 L 69.68116760253906 135.0401763916016 C 71.43472290039062 130.4034423828125 72.32384490966797 125.6178894042969 72.32384490966797 120.8164520263672 C 72.32384490966797 100.520637512207 57.88050842285156 82.98605346679688 37.9845085144043 79.12382507324219 C 37.91526031494141 79.11065673828125 37.8448600769043 79.10398101806641 37.7752571105957 79.10398101806641 C 37.24004745483398 79.10398101806641 36.77952194213867 79.4827880859375 36.68075942993164 80.00196838378906 C 36.56711959838867 80.60868072509766 36.96331024169922 81.19493865966797 37.56817245483398 81.30966949462891 C 42.20302200317383 82.20946502685547 46.59453201293945 83.89733123779297 50.62071990966797 86.32639312744141 C 54.53480911254883 88.68782806396484 57.9970588684082 91.68260192871094 60.91125869750977 95.2275390625 C 63.82334518432617 98.76988983154297 66.09346771240234 102.7462387084961 67.65856170654297 107.0461502075195 C 69.26644897460938 111.4636535644531 70.08171081542969 116.0966567993164 70.08171081542969 120.8164520263672 C 70.08171081542969 124.9133377075195 69.40128326416016 129.0005035400391 68.05931854248047 132.9644317626953 L 67.06598663330078 135.8986206054688 L 66.15623474121094 132.9374389648438 L 65.14797210693359 129.6556243896484 C 65.00698089599609 129.1943511962891 64.5704345703125 128.8722076416016 64.08633422851562 128.8722076416016 C 63.97739791870117 128.8722076416016 63.86882019042969 128.8888244628906 63.76363372802734 128.9216003417969 L 63.75933456420898 128.9229431152344 L 63.75503540039062 128.9242401123047 C 63.47485733032227 129.0087738037109 63.24380874633789 129.1995391845703 63.10441970825195 129.4613800048828 C 62.9642219543457 129.7247314453125 62.93490982055664 130.0249938964844 63.02162170410156 130.3059539794922 L 65.67295837402344 138.8693237304688 L 65.68934631347656 138.9222717285156 L 65.69979858398438 138.9766998291016 C 65.79727172851562 139.4849090576172 66.32096862792969 139.8983612060547 66.86719512939453 139.8983306884766 M 29.83857154846191 164.2984619140625 C 20.59345817565918 164.2984619140625 11.64477157592773 161.3572998046875 4.24078369140625 155.9623870849609 L 4.253958702087402 160.7348022460938 C 4.253958702087402 161.8974304199219 3.305408954620361 162.8426971435547 2.142771244049072 162.8426971435547 C 0.9801338315010071 162.8426971435547 0.03157134354114532 161.8974304199219 0.03157134354114532 160.7348022460938 L 0.001933843945153058 151.7729339599609 C -0.1309000998735428 150.4847564697266 0.947480320930481 149.3935394287109 2.149846792221069 149.3935394287109 C 2.22942042350769 149.3935394287109 2.309438467025757 149.3983154296875 2.38978385925293 149.4081268310547 L 11.3187084197998 149.3949737548828 C 12.48464679718018 149.3949737548828 13.42989635467529 150.3435363769531 13.42989635467529 151.5061492919922 C 13.42989635467529 152.6688079833984 12.48464679718018 153.6173248291016 11.3187084197998 153.6173248291016 L 8.262258529663086 153.6206512451172 C 14.63205909729004 157.8232574462891 22.05910873413086 160.0661773681641 29.83198356628418 160.0661773681641 C 39.5184326171875 160.0661773681641 48.70096969604492 156.1698760986328 55.83817291259766 149.6946868896484 L 55.84475708007812 149.6881103515625 C 56.25148391723633 149.3184967041016 56.761474609375 149.1361999511719 57.2694091796875 149.1361999511719 C 57.84323883056641 149.1361999511719 58.41448974609375 149.3686981201172 58.83204650878906 149.8264312744141 C 59.61920928955078 150.6926422119141 59.55663299560547 152.0265502929688 58.69372177124023 152.813720703125 C 50.80557250976562 159.9706726074219 40.54273223876953 164.2984619140625 29.83857154846191 164.2984619140625 Z M -7.436609268188477 141.0778198242188 C -8.136826515197754 141.0778961181641 -8.832866668701172 140.7301483154297 -9.23987865447998 139.8962554931641 C -12.15141582489014 133.9513397216797 -13.64999103546143 127.4332885742188 -13.64999103546143 120.8098754882812 C -13.64999103546143 101.5720443725586 -1.009203672409058 84.78788757324219 17.03308296203613 79.25136566162109 L 13.37390899658203 76.81080627441406 L 13.37390899658203 76.81740570068359 C 12.39900875091553 76.17516326904297 12.13223361968994 74.86101531982422 12.7744836807251 73.88941955566406 C 13.18054676055908 73.27507781982422 13.85656833648682 72.94249725341797 14.54439735412598 72.94249725341797 C 14.9444522857666 72.94249725341797 15.34847354888916 73.05497741699219 15.70577144622803 73.28995513916016 L 23.1097583770752 78.22376251220703 C 24.38109588623047 78.82647705078125 24.67092132568359 80.58855438232422 23.78165817260742 81.58980560302734 L 18.85773468017578 88.99051666259766 C 18.45217323303223 89.60405731201172 17.77863502502441 89.93654632568359 17.09184074401855 89.93656921386719 C 16.69102096557617 89.93657684326172 16.28572654724121 89.82334899902344 15.92644596099854 89.586669921875 C 14.954833984375 88.94440460205078 14.68805885314941 87.63025665283203 15.33030891418457 86.65535736083984 L 17.3756217956543 83.57913208007812 C 1.566383838653564 88.84890747070312 -9.417728424072266 103.7721405029297 -9.417728424072266 120.8164520263672 C -9.417728424072266 126.8042297363281 -8.090415954589844 132.6701202392578 -5.452253818511963 138.0452423095703 C -4.639551162719727 139.7057037353516 -6.046000480651855 141.0776824951172 -7.436609268188477 141.0778198242188 Z M 66.86722564697266 140.8983306884766 C 65.85831451416016 140.8983612060547 64.90995788574219 140.1674041748047 64.71769714355469 139.1650848388672 L 62.06636047363281 130.6017150878906 C 61.72381973266602 129.4917907714844 62.35289764404297 128.3028106689453 63.46613311767578 127.9668807983398 C 63.67208099365234 127.9027099609375 63.88088226318359 127.872200012207 64.08634185791016 127.872200012207 C 64.98818206787109 127.872200012207 65.8280029296875 128.4593505859375 66.10429382324219 129.3633422851562 L 67.11213684082031 132.6437683105469 C 68.39663696289062 128.8495483398438 69.08171081542969 124.8840560913086 69.08171081542969 120.8164520263672 C 69.08171081542969 102.0627670288086 55.80194473266602 85.86817932128906 37.37759780883789 82.29134368896484 C 36.2314338684082 82.07396697998047 35.48378372192383 80.96073150634766 35.69786071777344 79.81785583496094 C 35.88995742797852 78.80792999267578 36.78179168701172 78.10398101806641 37.77526092529297 78.10398101806641 C 37.90604782104492 78.10398101806641 38.03840637207031 78.11614990234375 38.17136001586914 78.14144134521484 C 58.56526947021484 82.10031890869141 73.32384490966797 100.0536804199219 73.32384490966797 120.8164520263672 C 73.32384490966797 125.8062438964844 72.37529754638672 130.7433471679688 70.61652374267578 135.3939208984375 L 74.98053741455078 134.0336456298828 L 74.98712158203125 134.0336456298828 C 75.19286346435547 133.9703369140625 75.40125274658203 133.9402160644531 75.60630798339844 133.9402160644531 C 76.51075744628906 133.9402160644531 77.35141754150391 134.5259399414062 77.62527465820312 135.4334259033203 C 77.96781921386719 136.5466613769531 77.33873748779297 137.7323455810547 76.22550964355469 138.0716247558594 L 67.72803497314453 140.7097625732422 C 67.44693756103516 140.8390045166016 67.15458679199219 140.8983154296875 66.86722564697266 140.8983306884766 Z" stroke="none" fill="#ebd08e"/>
  </g>
</svg>
