<svg xmlns="http://www.w3.org/2000/svg" width="124.667" height="92.364" viewBox="0 0 124.667 92.364">
  <path id="Path_264" data-name="Path 264" d="M113.407,174.276a17.6,17.6,0,0,1-9.471-2.7c-17.961-11.594-60.851-38.835-69.351-45.013a5.893,5.893,0,0,1-1.542-8.119l5.026-6.758a5.739,5.739,0,0,1,3.284-2.323,5.924,5.924,0,0,1,.771-4.055S54.678,85.6,54.678,85.412a5.9,5.9,0,0,1,8.31-1.352c.771.571,2.893,2.122,10.042,13.326a14.605,14.605,0,0,0,10.242,6.377c9.461,1.352,13.326,1.932,18.161,2.7a9.449,9.449,0,0,1,6.948,5.026l14.107,25.5a9.352,9.352,0,0,0,5.026,4.435l23.948,9.281a6.126,6.126,0,0,1,3.094,2.7,9,9,0,0,1-1.161,10.432l-.19.19a35.067,35.067,0,0,1-25.119,10.242ZM35.936,120.563a2.16,2.16,0,0,0,.771,2.713c8.5,5.987,51.2,33.419,69.161,44.813a14.836,14.836,0,0,0,7.539,2.132h14.3a32.454,32.454,0,0,0,18.932-6H117.081a14.651,14.651,0,0,1-8.31-2.7L52.165,119.412c-1.542-1.161-5.8-4.255-8.11-5.987a2.348,2.348,0,0,0-2.9.38ZM55.259,116.9l55.825,41.529a9.612,9.612,0,0,0,6,1.932h33.8a5.5,5.5,0,0,0,0-5.216,1.5,1.5,0,0,0-1.151-.961l-23.958-9.271a14.065,14.065,0,0,1-7.148-6.187l-13.906-25.69a6.922,6.922,0,0,0-4.255-3.094c-4.826-.771-8.5-1.352-17.961-2.7a18.129,18.129,0,0,1-12.945-8.109c-5.987-9.471-8.31-11.784-9.081-12.364a2.35,2.35,0,0,0-2.9.38L45.407,107.238a1.893,1.893,0,0,0,.581,2.7l8.5,6.377c.19.19.581.39.771.581Z" transform="translate(-31.544 -82.412)" fill="#fff" stroke="#ebd08e" stroke-width="1"/>
</svg>
